<svg width="57" height="38" viewBox="0 0 57 38" fill="none" xmlns="http://www.w3.org/2000/svg">
<path d="M7.04 35.92C5.22667 36.9067 3.82667 36.84 2.84 35.72C1.48 34.1467 2.08 32.6667 4.64 31.28C10.1067 27.76 13.6133 22.5867 15.16 15.76H3.96C2.33333 15.76 1.52 14.9333 1.52 13.28C1.52 11.6533 2.33333 10.84 3.96 10.84H15.96C16.2 8.68 16.32 5.92 16.32 2.56C16.3467 0.959999 17.2 0.159999 18.88 0.159999C20.6133 0.159999 21.4667 0.973333 21.44 2.6C21.3867 5.98666 21.24 8.73333 21 10.84H28.8H34.16C35.7867 10.84 36.6 11.6533 36.6 13.28C36.6 14.9333 35.7867 15.76 34.16 15.76H22.64C24.96 22.7733 28.76 27.9067 34.04 31.16C35.1867 31.7467 35.88 32.36 36.12 33C36.3867 33.72 36.16 34.5467 35.44 35.48C34.9067 36.1733 34.3067 36.5467 33.64 36.6C33.0533 36.68 32.3333 36.4933 31.48 36.04C26.0933 32.76 21.9733 27.5467 19.12 20.4C16.9867 27.1467 12.96 32.32 7.04 35.92ZM45.66 35.53C44.784 35.554 44.238 35.266 44.022 34.666C43.698 33.754 44.154 33.322 45.39 33.37C45.57 33.37 45.804 33.364 46.092 33.352C46.236 33.352 46.332 33.352 46.38 33.352C46.74 33.352 46.92 33.196 46.92 32.884V25.954V20.14C46.92 19.384 47.304 19.006 48.072 19.006C48.828 19.006 49.206 19.384 49.206 20.14V32.884C49.206 33.532 49.122 34.024 48.954 34.36C48.798 34.708 48.522 34.966 48.126 35.134C47.574 35.362 46.752 35.494 45.66 35.53ZM55.578 31.372C55.122 31.552 54.774 31.588 54.534 31.48C54.27 31.372 54.09 31.096 53.994 30.652C53.778 29.848 53.478 28.954 53.094 27.97C52.722 26.974 52.254 25.9 51.69 24.748C51.342 24.052 51.54 23.56 52.284 23.272C52.92 23.032 53.4 23.206 53.724 23.794C54.984 26.134 55.866 28.228 56.37 30.076C56.454 30.424 56.43 30.694 56.298 30.886C56.178 31.066 55.938 31.228 55.578 31.372ZM41.538 31.21C41.298 31.27 41.01 31.21 40.674 31.03C40.278 30.814 40.044 30.58 39.972 30.328C39.9 30.076 39.99 29.764 40.242 29.392C40.998 28.036 41.592 26.326 42.024 24.262C42.168 23.482 42.636 23.164 43.428 23.308C44.256 23.452 44.574 23.92 44.382 24.712C44.118 25.792 43.818 26.818 43.482 27.79C43.098 28.894 42.672 29.848 42.204 30.652C42 30.964 41.778 31.15 41.538 31.21Z" fill="#FFF7E9"/>
</svg>
