<svg width="41" height="24" viewBox="0 0 41 24" fill="none" xmlns="http://www.w3.org/2000/svg">
<path d="M3.824 22.152C2.736 22.744 1.896 22.704 1.304 22.032C0.488 21.088 0.848 20.2 2.384 19.368C5.664 17.256 7.768 14.152 8.696 10.056H1.976C1 10.056 0.512 9.56 0.512 8.568C0.512 7.592 1 7.104 1.976 7.104H9.176C9.32 5.808 9.392 4.152 9.392 2.136C9.408 1.176 9.92 0.696 10.928 0.696C11.968 0.696 12.48 1.184 12.464 2.16C12.432 4.192 12.344 5.84 12.2 7.104H16.88H20.096C21.072 7.104 21.56 7.592 21.56 8.568C21.56 9.56 21.072 10.056 20.096 10.056H13.184C14.576 14.264 16.856 17.344 20.024 19.296C20.712 19.648 21.128 20.016 21.272 20.4C21.432 20.832 21.296 21.328 20.864 21.888C20.544 22.304 20.184 22.528 19.784 22.56C19.432 22.608 19 22.496 18.488 22.224C15.256 20.256 12.784 17.128 11.072 12.84C9.792 16.888 7.376 19.992 3.824 22.152ZM29.66 22.53C28.784 22.554 28.238 22.266 28.022 21.666C27.698 20.754 28.154 20.322 29.39 20.37C29.57 20.37 29.804 20.364 30.092 20.352C30.236 20.352 30.332 20.352 30.38 20.352C30.74 20.352 30.92 20.196 30.92 19.884V12.954V7.14C30.92 6.384 31.304 6.006 32.072 6.006C32.828 6.006 33.206 6.384 33.206 7.14V19.884C33.206 20.532 33.122 21.024 32.954 21.36C32.798 21.708 32.522 21.966 32.126 22.134C31.574 22.362 30.752 22.494 29.66 22.53ZM39.578 18.372C39.122 18.552 38.774 18.588 38.534 18.48C38.27 18.372 38.09 18.096 37.994 17.652C37.778 16.848 37.478 15.954 37.094 14.97C36.722 13.974 36.254 12.9 35.69 11.748C35.342 11.052 35.54 10.56 36.284 10.272C36.92 10.032 37.4 10.206 37.724 10.794C38.984 13.134 39.866 15.228 40.37 17.076C40.454 17.424 40.43 17.694 40.298 17.886C40.178 18.066 39.938 18.228 39.578 18.372ZM25.538 18.21C25.298 18.27 25.01 18.21 24.674 18.03C24.278 17.814 24.044 17.58 23.972 17.328C23.9 17.076 23.99 16.764 24.242 16.392C24.998 15.036 25.592 13.326 26.024 11.262C26.168 10.482 26.636 10.164 27.428 10.308C28.256 10.452 28.574 10.92 28.382 11.712C28.118 12.792 27.818 13.818 27.482 14.79C27.098 15.894 26.672 16.848 26.204 17.652C26 17.964 25.778 18.15 25.538 18.21Z" fill="#1A394A"/>
</svg>
