<svg width="105" height="123" viewBox="0 0 105 123" fill="none" xmlns="http://www.w3.org/2000/svg">
<path d="M79.1351 48.783C79.2624 44.1832 78.4507 40.2201 76.7477 37.021C75.0606 33.8536 72.323 31.0206 68.3758 28.3785C59.797 22.6328 49.6584 20.3886 40.5862 22.2508C34.2675 23.54 29.5245 26.8983 27.6145 31.4503C25.8637 35.6044 26.58 40.7135 29.3971 44.7085C28.8241 45.8067 28.4103 46.9845 28.2034 48.2418C28.1875 48.3533 28.1716 48.4806 28.1398 48.592C26.5004 52.3641 25.2112 56.375 24.9406 60.6564C24.7019 64.54 25.4499 68.0097 27.0893 70.6836C30.1611 75.6813 35.8432 77.7345 41.4138 79.4057C42.6712 79.7877 44.1832 80.2333 45.8226 80.2333C46.125 80.2333 46.4433 80.2174 46.7457 80.1856C48.592 79.9787 50.4064 79.1351 52.1254 77.6708C53.1122 76.8273 53.9876 75.8564 54.7516 74.7741C56.4387 75.4585 58.1735 75.9041 59.9084 75.9996C60.179 75.9996 60.4655 76.0155 60.736 76.0155C66.7523 76.0155 72.0047 72.5458 76.3816 69.1079C79.2465 66.8637 81.9841 64.2853 82.7003 60.6087C83.4484 56.757 81.6658 53.2077 79.9309 50.1995C79.6762 49.738 79.4057 49.2764 79.1192 48.8148L79.1351 48.783ZM32.0233 33.2807C33.8696 28.9037 39.3129 27.3758 41.5571 26.9142C49.3878 25.3067 58.1894 27.2962 65.7178 32.3416C68.9965 34.538 71.2248 36.7981 72.5299 39.2492C73.0233 40.1724 73.3735 41.2069 73.6759 42.321C72.9596 41.7958 72.1957 41.3024 71.3521 40.9363C70.047 40.3474 68.6941 40.0609 67.3253 39.9177C66.4022 38.4375 65.3835 37.005 64.2217 35.684C63.1871 34.4903 61.8979 33.1693 60.1312 32.3894C58.3486 31.5936 56.1999 31.4344 53.9239 31.9119C53.2713 32.0551 52.6347 32.2302 51.9981 32.4689C50.5019 32.278 49.0217 32.1506 47.6689 32.071C45.0427 31.896 41.4457 31.6572 38.342 33.2966C35.3498 34.8723 33.5672 37.769 32.262 40.2042C31.2593 37.9282 31.132 35.3657 31.9915 33.3125L32.0233 33.2807ZM53.3668 62.1048C52.6347 62.1367 51.9185 62.1366 51.1863 62.1207C51.1068 62.0889 51.0113 62.0411 50.9317 62.0093C49.3878 61.4841 47.7484 60.7679 46.6502 59.6856C46.4115 58.9693 46.2842 58.2372 46.2682 57.521C46.2682 57.0276 46.316 56.5342 46.4115 56.0408C48.5443 57.0594 50.7089 58.0144 52.8894 58.9057C53.1281 59.988 53.3032 61.0543 53.3828 62.0889L53.3668 62.1048ZM52.0458 67.4526C52.0617 67.2617 52.0458 67.0707 52.0299 66.8797C52.3641 66.8797 52.7143 66.8956 53.0485 66.8797C52.9689 67.2617 52.8257 67.6277 52.7143 68.0097C52.4915 67.8187 52.2527 67.6436 52.0458 67.4367V67.4526ZM33.3443 48.7034C34.936 49.929 36.6231 50.9317 38.1988 51.823C38.8354 52.1891 39.488 52.5233 40.1405 52.8894C40.1405 53.4783 40.1246 54.0672 40.1405 54.672C40.236 56.5182 40.4907 58.8261 41.5889 60.8793C39.87 60.354 38.4375 59.6696 37.212 58.7783C34.2993 56.6774 32.5644 53.0963 32.8032 49.8335C32.9783 49.4515 33.1533 49.0695 33.3443 48.7034ZM48.2896 41.0159C49.4992 39.4243 50.9953 38.1669 52.6347 37.3711C57.3459 38.1033 59.7651 39.2492 61.0066 40.3474C60.1312 40.5225 59.3036 40.7294 58.5078 40.9523C56.2477 41.573 53.5578 42.4325 50.9635 43.7853C50.104 42.7508 49.2287 41.7958 48.2896 41.0159ZM66.9115 57.5528C66.7364 57.9348 66.4658 58.269 66.1794 58.6033C63.0439 57.6483 59.9402 56.5978 56.8843 55.4041C56.3273 53.5897 55.6269 51.7116 54.7038 49.7539C54.3696 49.0536 54.0194 48.401 53.6533 47.7644C55.7224 46.7457 57.903 46.0613 59.7651 45.552C61.2931 45.1382 62.9165 44.7562 64.5241 44.6289C65.7496 47.0481 66.625 49.6425 67.1343 52.3323C67.5641 54.672 67.5004 56.3273 66.9115 57.5528ZM49.6902 50.4224C49.9608 50.9317 50.1995 51.4092 50.3905 51.8071C50.5656 52.1731 50.6929 52.5233 50.8521 52.8735C50.0404 52.5074 49.2446 52.1413 48.4488 51.7593C48.8148 51.2978 49.2286 50.8521 49.6902 50.4224ZM45.3133 48.0827C45.4884 47.1436 45.7112 46.2205 45.9977 45.3769C46.3478 45.7112 46.6662 46.0773 46.9845 46.4433C46.3797 46.9526 45.8226 47.5097 45.3133 48.0827ZM44.1514 38.5967C42.8781 38.1192 41.5571 37.8645 40.2201 37.8486C40.1724 37.8486 40.1405 37.8486 40.0928 37.8486H40.0291C40.2042 37.7213 40.3952 37.6099 40.5862 37.5144C41.9709 36.7822 43.6739 36.6708 45.6794 36.7345C45.1382 37.3075 44.6289 37.9282 44.1514 38.5967ZM40.0928 42.6234C40.0928 42.6234 40.1405 42.6234 40.1564 42.6234C40.7453 42.6234 41.3024 42.7189 41.8436 42.8622C41.2547 44.3583 40.8408 45.9818 40.5384 47.6848C38.915 46.7616 37.1801 45.7112 35.6522 44.4379C36.9414 43.3397 38.5171 42.6394 40.0928 42.6394V42.6234ZM59.5901 61.4841C59.5901 61.4841 59.4627 61.5159 59.3991 61.5159C58.9693 61.5796 58.5555 61.6432 58.1258 61.7069C58.1099 61.4523 58.0462 61.1817 58.0303 60.927C58.5555 61.118 59.0648 61.2931 59.5901 61.4841ZM49.0536 73.9942C48.3692 74.5672 47.3346 75.2834 46.2364 75.4107C45.2178 75.5221 43.9922 75.1561 42.7985 74.8059C37.9123 73.3416 33.3602 71.7341 31.1638 68.1689C29.7314 65.8451 29.5881 62.9484 29.6995 60.927C29.7632 59.9243 29.8905 58.9216 30.0815 57.9348C31.1638 59.7651 32.6281 61.4045 34.3948 62.6778C37.1005 64.6196 40.4429 65.8292 44.8199 66.4499C44.8358 66.4818 44.8517 66.5295 44.8835 66.5613C46.5547 68.9169 48.4806 70.8587 50.5497 72.3707C50.0881 72.9755 49.5947 73.5326 49.0377 73.9942H49.0536ZM78.021 59.6696C77.5912 61.9138 75.4266 63.7601 73.4371 65.3199C69.5536 68.3599 64.9379 71.4476 60.179 71.1929C59.1126 71.1293 58.0303 70.9064 56.9798 70.5085C57.4414 69.2512 57.7756 67.9301 57.9825 66.5454C58.7147 66.4499 59.4468 66.3544 60.179 66.2271C65.8451 65.304 69.5695 63.0757 71.2248 59.606C72.5936 56.7411 72.2275 53.5738 71.8296 51.4569C71.4635 49.4992 70.9064 47.5734 70.2061 45.7271C72.5617 47.1595 74.2488 49.8494 75.7927 52.5392C77.1615 54.9107 78.4507 57.4255 78.021 59.6696ZM52.3164 0C23.4763 0 0 23.4763 0 52.3164C0 69.5536 8.41964 85.5493 22.5691 95.3536L24.1766 120.756C24.2403 121.663 24.7974 122.459 25.625 122.809C25.9274 122.936 26.2457 123 26.5481 123C27.1052 123 27.6623 122.809 28.1079 122.427L48.974 104.521C50.1518 104.601 51.25 104.633 52.3005 104.633C81.1405 104.633 104.617 81.1564 104.617 52.3164C104.617 23.4763 81.1565 0 52.3164 0ZM52.3164 99.8579C51.1068 99.8579 49.8175 99.7943 48.3851 99.6828C47.7484 99.6351 47.1277 99.842 46.6343 100.256L28.6491 115.679L27.2644 93.8894C27.2166 93.1413 26.8187 92.4569 26.198 92.0431C12.7807 83.2096 4.77485 68.3599 4.77485 52.3323C4.77485 26.1184 26.1025 4.79076 52.3164 4.79076C78.5303 4.79076 99.8579 26.1184 99.8579 52.3323C99.8579 78.5462 78.5303 99.8738 52.3164 99.8738V99.8579Z" fill="black"/>
</svg>
