<svg width="77" height="123" viewBox="0 0 77 123" fill="none" xmlns="http://www.w3.org/2000/svg">
<g clip-path="url(#clip0_835_12013)">
<path d="M33.9507 35.8642H44.956C46.1212 35.8642 46.8981 34.9579 46.8981 33.9221V31.98C46.8981 30.8147 45.9918 30.0379 44.956 30.0379H40.5539C40.2949 30.0379 40.036 29.6494 40.1654 29.3905L46.1212 18.3852C46.8981 16.8316 45.8623 15.0189 44.0497 15.0189H33.9507C32.7854 15.0189 32.0086 15.9252 32.0086 16.961V18.7737C32.0086 19.9389 32.9149 20.7158 33.9507 20.7158H37.4465C37.7054 20.7158 37.9644 21.1042 37.8349 21.3631L31.8791 32.4979C31.1023 34.0516 32.1381 35.8642 33.9507 35.8642Z" fill="black"/>
<path d="M61.3984 18.9031H57.9026C57.6437 18.9031 57.5142 18.6442 57.6437 18.3852L62.4342 9.58101C63.0816 8.41574 62.1753 6.86206 60.7511 6.86206H52.7237C51.8174 6.86206 51.17 7.50943 51.17 8.41574V9.96943C51.17 10.8757 51.8174 11.5231 52.7237 11.5231H55.4426C55.7016 11.5231 55.831 11.7821 55.7016 12.041L50.911 20.8452C50.2637 22.0105 51.17 23.5642 52.5942 23.5642H61.3984C62.3047 23.5642 62.9521 22.9168 62.9521 22.0105V20.4568C62.9521 19.5505 62.3047 18.9031 61.3984 18.9031Z" fill="black"/>
<path d="M75.3822 9.71053H72.5338C72.2748 9.71053 72.1453 9.45158 72.2748 9.32211L76.159 2.20105C76.6769 1.16526 76.0295 0 74.8643 0H68.3906C67.7432 0 67.0958 0.517895 67.0958 1.29474V2.46C67.0958 3.10737 67.6137 3.75474 68.3906 3.75474H70.5916C70.8506 3.75474 70.9801 4.01368 70.8506 4.14316L66.9664 11.2642C66.4485 12.3 67.0959 13.4653 68.2611 13.4653H75.3822C76.159 13.4653 76.6769 12.9474 76.6769 12.1705V11.0053C76.6769 10.3579 76.159 9.71053 75.3822 9.71053Z" fill="black"/>
<path d="M33.95 77.0368C33.691 74.4474 33.4321 71.5989 33.3026 68.88C33.4321 69.1389 33.5615 69.3979 33.8205 69.5274C36.41 73.0232 45.2142 76.6484 50.2637 78.461C50.7815 78.5905 51.2994 78.72 51.6879 78.72C53.371 78.72 55.0542 77.6842 55.7015 75.8716C56.4784 73.6705 55.4426 71.2105 53.2415 70.4337C47.6742 68.3621 41.7184 65.5137 40.6826 64.4779C39.6468 63.1831 38.4815 60.4642 37.3163 57.7453C35.5037 53.7316 33.8205 49.8474 31.6194 47.5168C29.8068 45.1863 25.6637 44.5389 21.1321 44.5389C13.6226 44.5389 12.1984 47.9053 12.3279 51.9189C12.3279 57.3568 14.5289 78.461 15.1763 83.64C16.0826 90.2431 24.3689 89.0779 32.7847 89.2074C40.4237 89.3368 43.2721 89.3368 45.991 89.7253C46.6384 89.8547 47.0268 90.3726 47.0268 90.8905C47.2858 96.0695 46.7679 106.816 46.1205 116.008C45.8615 118.598 47.1563 121.187 49.4868 122.353C50.3931 122.741 51.17 123 51.9468 123C55.0542 123 57.6437 120.669 57.7731 117.562C59.3268 98.6589 59.1973 87.2653 57.5142 83.7695C55.1837 78.8495 48.9689 77.4253 33.95 77.0368Z" fill="black"/>
<path d="M13.9122 42.0588C20.2654 41.6847 25.1124 36.231 24.7383 29.8778C24.3641 23.5246 18.9105 18.6775 12.5573 19.0517C6.20403 19.4258 1.35701 24.8794 1.73116 31.2327C2.1053 37.5859 7.55892 42.433 13.9122 42.0588Z" fill="black"/>
<path d="M38.9998 92.3148H12.0693L7.53771 50.1063C7.27876 48.0348 5.46613 46.4811 3.39455 46.74C1.32297 46.999 -0.230712 48.8116 0.0282352 50.8832L4.94824 96.4579C5.20718 98.4 6.76087 99.8242 8.70297 99.8242L6.37245 118.598C6.1135 120.67 7.53771 122.612 9.73876 122.871C9.86824 122.871 9.99771 122.871 10.2567 122.871C12.1988 122.871 13.7524 121.446 14.0114 119.504L16.3419 99.8242H29.2893L31.8788 119.634C32.1377 121.576 33.8209 123 35.6335 123C35.763 123 35.8924 123 36.1514 123C38.223 122.741 39.7767 120.799 39.5177 118.727L37.0577 99.8242H38.9998C41.0714 99.8242 42.7546 98.1411 42.7546 96.0695C42.7546 93.9979 41.0714 92.3148 38.9998 92.3148Z" fill="black"/>
</g>
<defs>
<clipPath id="clip0_835_12013">
<rect width="76.6768" height="123" fill="white"/>
</clipPath>
</defs>
</svg>
