<svg width="124" height="123" viewBox="0 0 124 123" fill="none" xmlns="http://www.w3.org/2000/svg">
<g clip-path="url(#clip0_1214_18490)">
<path d="M90.1869 9.82227C84.4159 9.91203 78.7708 11.523 73.8216 14.4925C68.8724 17.462 64.7944 21.6849 61.9994 26.7348C59.2044 21.6849 55.1265 17.462 50.1773 14.4925C45.2281 11.523 39.5829 9.91203 33.8119 9.82227C24.6122 10.222 15.9447 14.2464 9.70281 21.0165C3.46095 27.7865 0.152199 36.7517 0.49942 45.9535C0.49942 69.2569 25.0277 94.7076 45.5994 111.964C50.1925 115.823 55.9999 117.939 61.9994 117.939C67.999 117.939 73.8063 115.823 78.3994 111.964C98.9712 94.7076 123.499 69.2569 123.499 45.9535C123.847 36.7517 120.538 27.7865 114.296 21.0165C108.054 14.2464 99.3866 10.222 90.1869 9.82227Z" fill="#FF6347"/>
</g>
<defs>
<clipPath id="clip0_1214_18490">
<rect width="123" height="123" fill="white" transform="translate(0.5)"/>
</clipPath>
</defs>
</svg>
