<svg width="42" height="43" viewBox="0 0 42 43" fill="none" xmlns="http://www.w3.org/2000/svg">
<rect x="1" y="1.32227" width="40" height="40" rx="20" fill="#1A394A"/>
<rect x="1" y="1.32227" width="40" height="40" rx="20" stroke="white" stroke-width="2"/>
<path d="M25.6875 21.3223C25.6875 21.5709 25.5887 21.8094 25.4129 21.9852C25.2371 22.161 24.9986 22.2598 24.75 22.2598H17.25C17.0014 22.2598 16.7629 22.161 16.5871 21.9852C16.4113 21.8094 16.3125 21.5709 16.3125 21.3223C16.3125 21.0736 16.4113 20.8352 16.5871 20.6594C16.7629 20.4835 17.0014 20.3848 17.25 20.3848H24.75C24.9986 20.3848 25.2371 20.4835 25.4129 20.6594C25.5887 20.8352 25.6875 21.0736 25.6875 21.3223ZM24.75 24.1348H17.25C17.0014 24.1348 16.7629 24.2335 16.5871 24.4094C16.4113 24.5852 16.3125 24.8236 16.3125 25.0723C16.3125 25.3209 16.4113 25.5594 16.5871 25.7352C16.7629 25.911 17.0014 26.0098 17.25 26.0098H24.75C24.9986 26.0098 25.2371 25.911 25.4129 25.7352C25.5887 25.5594 25.6875 25.3209 25.6875 25.0723C25.6875 24.8236 25.5887 24.5852 25.4129 24.4094C25.2371 24.2335 24.9986 24.1348 24.75 24.1348ZM31.3125 11.0098V29.7598C31.3125 30.7543 30.9174 31.7082 30.2141 32.4114C29.5109 33.1147 28.5571 33.5098 27.5625 33.5098H14.4375C13.4429 33.5098 12.4891 33.1147 11.7858 32.4114C11.0826 31.7082 10.6875 30.7543 10.6875 29.7598V11.0098C10.6875 10.7611 10.7863 10.5227 10.9621 10.3469C11.1379 10.171 11.3764 10.0723 11.625 10.0723H14.4375V9.13477C14.4375 8.88613 14.5363 8.64767 14.7121 8.47185C14.8879 8.29604 15.1264 8.19727 15.375 8.19727C15.6236 8.19727 15.8621 8.29604 16.0379 8.47185C16.2137 8.64767 16.3125 8.88613 16.3125 9.13477V10.0723H20.0625V9.13477C20.0625 8.88613 20.1613 8.64767 20.3371 8.47185C20.5129 8.29604 20.7514 8.19727 21 8.19727C21.2486 8.19727 21.4871 8.29604 21.6629 8.47185C21.8387 8.64767 21.9375 8.88613 21.9375 9.13477V10.0723H25.6875V9.13477C25.6875 8.88613 25.7863 8.64767 25.9621 8.47185C26.1379 8.29604 26.3764 8.19727 26.625 8.19727C26.8736 8.19727 27.1121 8.29604 27.2879 8.47185C27.4637 8.64767 27.5625 8.88613 27.5625 9.13477V10.0723H30.375C30.6236 10.0723 30.8621 10.171 31.0379 10.3469C31.2137 10.5227 31.3125 10.7611 31.3125 11.0098ZM29.4375 11.9473H27.5625V12.8848C27.5625 13.1334 27.4637 13.3719 27.2879 13.5477C27.1121 13.7235 26.8736 13.8223 26.625 13.8223C26.3764 13.8223 26.1379 13.7235 25.9621 13.5477C25.7863 13.3719 25.6875 13.1334 25.6875 12.8848V11.9473H21.9375V12.8848C21.9375 13.1334 21.8387 13.3719 21.6629 13.5477C21.4871 13.7235 21.2486 13.8223 21 13.8223C20.7514 13.8223 20.5129 13.7235 20.3371 13.5477C20.1613 13.3719 20.0625 13.1334 20.0625 12.8848V11.9473H16.3125V12.8848C16.3125 13.1334 16.2137 13.3719 16.0379 13.5477C15.8621 13.7235 15.6236 13.8223 15.375 13.8223C15.1264 13.8223 14.8879 13.7235 14.7121 13.5477C14.5363 13.3719 14.4375 13.1334 14.4375 12.8848V11.9473H12.5625V29.7598C12.5625 30.257 12.76 30.734 13.1117 31.0856C13.4633 31.4372 13.9402 31.6348 14.4375 31.6348H27.5625C28.0598 31.6348 28.5367 31.4372 28.8883 31.0856C29.24 30.734 29.4375 30.257 29.4375 29.7598V11.9473Z" fill="white"/>
</svg>
