<svg width="42" height="42" viewBox="0 0 42 42" fill="none" xmlns="http://www.w3.org/2000/svg">
<rect x="1" y="1" width="40" height="40" rx="20" fill="#1A394A"/>
<rect x="1" y="1" width="40" height="40" rx="20" stroke="white" stroke-width="2"/>
<path d="M21 7.875C18.2659 7.8781 15.6447 8.96559 13.7114 10.8989C11.7781 12.8322 10.6906 15.4534 10.6875 18.1875C10.6875 27.0117 20.0625 33.6762 20.4621 33.9551C20.6197 34.0655 20.8075 34.1247 21 34.1247C21.1925 34.1247 21.3803 34.0655 21.5379 33.9551C21.9375 33.6762 31.3125 27.0117 31.3125 18.1875C31.3094 15.4534 30.2219 12.8322 28.2886 10.8989C26.3553 8.96559 23.7341 7.8781 21 7.875ZM21 14.4375C21.7417 14.4375 22.4667 14.6574 23.0834 15.0695C23.7001 15.4815 24.1807 16.0672 24.4645 16.7524C24.7484 17.4377 24.8226 18.1917 24.6779 18.9191C24.5333 19.6465 24.1761 20.3147 23.6516 20.8392C23.1272 21.3636 22.459 21.7208 21.7316 21.8654C21.0042 22.0101 20.2502 21.9359 19.5649 21.652C18.8797 21.3682 18.294 20.8876 17.882 20.2709C17.4699 19.6542 17.25 18.9292 17.25 18.1875C17.25 17.1929 17.6451 16.2391 18.3483 15.5358C19.0516 14.8326 20.0054 14.4375 21 14.4375Z" fill="white"/>
</svg>
