<svg width="74" height="86" viewBox="0 0 74 86" fill="none" xmlns="http://www.w3.org/2000/svg">
<g filter="url(#filter0_d_3932_1510)">
<path d="M36.9994 2.10449C30.3842 2.11177 24.0421 4.74268 19.3642 9.42007C14.6864 14.0975 12.0548 20.4393 12.0469 27.0545C12.0469 33.4795 17.0219 43.5345 26.8344 56.9395C28.0025 58.5398 29.532 59.8417 31.2984 60.7393C33.0647 61.6368 35.0181 62.1046 36.9994 62.1046C38.9807 62.1046 40.934 61.6368 42.7004 60.7393C44.4667 59.8417 45.9962 58.5398 47.1644 56.9395C56.9769 43.5345 61.9519 33.4795 61.9519 27.0545C61.9439 20.4393 59.3124 14.0975 54.6345 9.42007C49.9567 4.74268 43.6145 2.11177 36.9994 2.10449ZM36.9994 36.9995C35.0216 36.9995 33.0882 36.413 31.4437 35.3142C29.7992 34.2154 28.5175 32.6536 27.7606 30.8263C27.0037 28.9991 26.8057 26.9884 27.1915 25.0486C27.5774 23.1088 28.5298 21.327 29.9283 19.9284C31.3268 18.5299 33.1087 17.5775 35.0485 17.1916C36.9883 16.8058 38.9989 17.0038 40.8262 17.7607C42.6535 18.5176 44.2153 19.7993 45.3141 21.4438C46.4129 23.0883 46.9994 25.0217 46.9994 26.9995C46.9994 29.6517 45.9458 32.1952 44.0704 34.0706C42.1951 35.9459 39.6515 36.9995 36.9994 36.9995Z" fill="#1A394A"/>
<path d="M37.0005 1.10449L36.9983 1.10449C30.1183 1.11206 23.5223 3.84829 18.6571 8.71292C13.792 13.5776 11.0551 20.1733 11.0469 27.0533V27.0545C11.0469 30.4955 12.3696 34.7804 14.8647 39.823C17.3694 44.885 21.1015 50.8006 26.0267 57.5291C27.2876 59.2566 28.9387 60.6619 30.8454 61.6308C32.7521 62.5996 34.8606 63.1046 36.9994 63.1046C39.1381 63.1046 41.2467 62.5996 43.1534 61.6308C45.0601 60.6619 46.7111 59.2566 47.9721 57.5291C52.8973 50.8006 56.6294 44.885 59.1341 39.823C61.6292 34.7804 62.9519 30.4955 62.9519 27.0545V27.0533C62.9436 20.1733 60.2067 13.5776 55.3416 8.71292C50.4765 3.84829 43.8804 1.11206 37.0005 1.10449ZM36.9994 35.9995C35.2193 35.9995 33.4793 35.4717 31.9992 34.4827C30.5192 33.4938 29.3656 32.0882 28.6845 30.4436C28.0033 28.7991 27.825 26.9895 28.1723 25.2437C28.5196 23.4979 29.3767 21.8942 30.6354 20.6355C31.8941 19.3769 33.4977 18.5197 35.2436 18.1724C36.9894 17.8252 38.799 18.0034 40.4435 18.6846C42.0881 19.3658 43.4937 20.5193 44.4826 21.9994C45.4715 23.4794 45.9994 25.2195 45.9994 26.9995C45.9994 29.3864 45.0512 31.6756 43.3633 33.3635C41.6755 35.0513 39.3863 35.9995 36.9994 35.9995Z" stroke="#FFF7E9" stroke-width="5"/>
</g>
<defs>
<filter id="filter0_d_3932_1510" x="0.046875" y="0.104492" width="73.9043" height="85" filterUnits="userSpaceOnUse" color-interpolation-filters="sRGB">
<feFlood flood-opacity="0" result="BackgroundImageFix"/>
<feColorMatrix in="SourceAlpha" type="matrix" values="0 0 0 0 0 0 0 0 0 0 0 0 0 0 0 0 0 0 127 0" result="hardAlpha"/>
<feOffset dy="11"/>
<feGaussianBlur stdDeviation="5"/>
<feComposite in2="hardAlpha" operator="out"/>
<feColorMatrix type="matrix" values="0 0 0 0 0.2 0 0 0 0 0.2 0 0 0 0 0.2 0 0 0 0.19 0"/>
<feBlend mode="normal" in2="BackgroundImageFix" result="effect1_dropShadow_3932_1510"/>
<feBlend mode="normal" in="SourceGraphic" in2="effect1_dropShadow_3932_1510" result="shape"/>
</filter>
</defs>
</svg>
