<svg width="92" height="34" viewBox="0 0 92 34" fill="none" xmlns="http://www.w3.org/2000/svg">
<path d="M32.1257 16.8223C32.1257 24.7677 25.4456 31.3223 17.0628 31.3223C8.6801 31.3223 2 24.7677 2 16.8223C2 8.87684 8.6801 2.32227 17.0628 2.32227C25.4456 2.32227 32.1257 8.87684 32.1257 16.8223Z" fill="#FFC800" stroke="url(#paint0_linear_2422_18322)" stroke-width="4"/>
<path d="M88.6361 28.3955C88.1899 28.3955 87.9668 28.1798 87.9668 27.7483V25.9131V23.9627C87.9668 23.6081 88.1563 23.4308 88.5352 23.4308C88.8897 23.4308 89.0853 23.5933 89.122 23.9184L89.1587 24.3085H89.1953C89.3787 23.9893 89.6018 23.7411 89.8646 23.5637C90.1213 23.3923 90.3841 23.3066 90.653 23.3066C90.6958 23.3066 90.7356 23.3066 90.7722 23.3066C90.9373 23.3421 91.0503 23.4219 91.1115 23.546C91.1665 23.6642 91.1756 23.809 91.139 23.9804C91.0534 24.3528 90.8425 24.5124 90.5064 24.4592C90.5002 24.4592 90.4941 24.4592 90.488 24.4592C90.2619 24.4592 90.051 24.5331 89.8554 24.6808C89.6232 24.8463 89.4398 25.0975 89.3053 25.4344V27.7483C89.3053 28.1798 89.0822 28.3955 88.6361 28.3955Z" fill="#FFC800"/>
<path d="M84.8671 28.5197C84.1336 28.5197 83.5316 28.2891 83.061 27.8281C82.5659 27.3553 82.3184 26.7199 82.3184 25.922C82.3184 25.1477 82.5628 24.5094 83.0518 24.007C83.5163 23.5401 84.0695 23.3066 84.7112 23.3066C85.3958 23.3066 85.9306 23.5312 86.3156 23.9804C86.6763 24.406 86.8566 24.9734 86.8566 25.6826C86.8566 25.789 86.8505 25.9131 86.8382 26.055C86.826 26.1141 86.7893 26.1673 86.7282 26.2146C86.6671 26.256 86.5968 26.2766 86.5173 26.2766H85.2063H83.6294C83.6844 26.6786 83.8403 26.9859 84.097 27.1987C84.3414 27.4114 84.6593 27.5178 85.0504 27.5178C85.301 27.5178 85.5394 27.4735 85.7656 27.3848C86.0589 27.2371 86.2851 27.3051 86.444 27.5888C86.5846 27.8488 86.5357 28.0468 86.2973 28.1828C85.8328 28.4074 85.3561 28.5197 84.8671 28.5197ZM83.6111 25.4167H84.6562H85.7014C85.7014 25.068 85.6219 24.799 85.463 24.6099C85.298 24.4148 85.0535 24.3173 84.7296 24.3173C84.4484 24.3173 84.207 24.4089 84.0053 24.5922C83.7914 24.7931 83.66 25.068 83.6111 25.4167Z" fill="#FFC800"/>
<path d="M80.5242 28.396C80.078 28.396 79.8549 28.1803 79.8549 27.7488V24.0785C79.8549 23.647 80.078 23.4313 80.5242 23.4313C80.9704 23.4313 81.1935 23.647 81.1935 24.0785V25.9137V27.7488C81.1935 28.1803 80.9704 28.396 80.5242 28.396ZM80.5334 22.6334C80.3011 22.6334 80.1086 22.5683 79.9558 22.4383C79.803 22.3024 79.7266 22.131 79.7266 21.9241C79.7266 21.7113 79.803 21.5399 79.9558 21.4099C80.1086 21.2799 80.3011 21.2148 80.5334 21.2148C80.7656 21.2148 80.9551 21.2799 81.1018 21.4099C81.2546 21.5399 81.331 21.7113 81.331 21.9241C81.331 22.1251 81.2546 22.2935 81.1018 22.4294C80.9551 22.5654 80.7656 22.6334 80.5334 22.6334Z" fill="black"/>
<path d="M74.6595 28.3951C74.2133 28.3951 73.9902 28.1794 73.9902 27.7479V24.8577V21.9675C73.9902 21.536 74.2133 21.3203 74.6595 21.3203C75.1057 21.3203 75.3288 21.536 75.3288 21.9675V23.1023L75.2738 24.0332C75.8116 23.5486 76.3495 23.3062 76.8874 23.3062C77.9447 23.3062 78.4734 23.9711 78.4734 25.301V27.7479C78.4734 28.1794 78.2503 28.3951 77.8042 28.3951C77.3519 28.3951 77.1257 28.1794 77.1257 27.7479V25.4606C77.1257 25.0823 77.0677 24.8163 76.9515 24.6627C76.8415 24.5031 76.6581 24.4233 76.4014 24.4233C76.2059 24.4233 76.0225 24.4706 75.8514 24.5651C75.7169 24.642 75.5427 24.7809 75.3288 24.9818V27.7479C75.3288 28.1794 75.1057 28.3951 74.6595 28.3951Z" fill="black"/>
<path d="M72.0206 28.5203C70.896 28.5203 70.3337 27.8997 70.3337 26.6585V24.4598H70.1045C69.7744 24.4598 69.6094 24.2943 69.6094 23.9634C69.6094 23.6501 69.7652 23.4817 70.0769 23.458L70.3978 23.4314L70.4987 22.6069C70.5354 22.27 70.734 22.1016 71.0946 22.1016C71.4858 22.1016 71.6814 22.2818 71.6814 22.6424V23.4314H72.4148C72.7693 23.4314 72.9466 23.6028 72.9466 23.9456C72.9466 24.2884 72.7693 24.4598 72.4148 24.4598H71.6814V25.5592V26.6585C71.6814 27.2141 71.9136 27.4919 72.3781 27.4919C72.3843 27.4919 72.3904 27.4919 72.3965 27.4919C72.7143 27.421 72.9129 27.548 72.9924 27.8731C73.0596 28.1805 72.9618 28.3696 72.699 28.4405C72.4668 28.4937 72.2406 28.5203 72.0206 28.5203Z" fill="black"/>
<path d="M68.5132 28.5192C67.6698 28.5192 67.248 28.0139 67.248 27.0032V21.9675C67.248 21.536 67.4711 21.3203 67.9173 21.3203C68.3635 21.3203 68.5866 21.536 68.5866 21.9675V24.1928V27.0653C68.5866 27.3253 68.6783 27.4554 68.8616 27.4554C68.8677 27.4554 68.8739 27.4554 68.88 27.4554C68.9289 27.4494 68.9747 27.476 69.0175 27.5351C69.0542 27.5883 69.0786 27.6445 69.0908 27.7036C69.1214 27.875 69.1214 28.0346 69.0908 28.1823C69.048 28.3656 68.9655 28.472 68.8433 28.5015C68.7088 28.5133 68.5988 28.5192 68.5132 28.5192Z" fill="black"/>
<path d="M63.0961 28.5197C62.6438 28.5197 62.2771 28.3808 61.996 28.103C61.7148 27.8252 61.5742 27.4735 61.5742 27.048C61.5742 26.516 61.8065 26.1052 62.271 25.8156C62.7416 25.5201 63.4934 25.3191 64.5263 25.2128C64.5019 24.6394 64.2116 24.3528 63.6554 24.3528C63.3742 24.3528 63.0656 24.4267 62.7294 24.5744C62.4055 24.734 62.161 24.669 61.996 24.3794C61.837 24.1016 61.8951 23.8888 62.1701 23.7411C62.7508 23.4514 63.3284 23.3066 63.9029 23.3066C64.5508 23.3066 65.0398 23.4928 65.3698 23.8652C65.706 24.2316 65.8741 24.7754 65.8741 25.4965V26.9504V27.8636C65.8741 28.2182 65.6785 28.3955 65.2873 28.3955C64.945 28.3955 64.7433 28.2419 64.6822 27.9345L64.673 27.8636H64.6455C64.1199 28.301 63.6034 28.5197 63.0961 28.5197ZM63.5362 27.5001C63.8601 27.5001 64.1902 27.3376 64.5263 27.0125V26.0107C63.9457 26.0875 63.5117 26.2057 63.2245 26.3653C62.98 26.519 62.8578 26.7111 62.8578 26.9416C62.8578 27.3139 63.0839 27.5001 63.5362 27.5001Z" fill="black"/>
<path d="M58.8573 28.5197C58.1239 28.5197 57.5218 28.2891 57.0512 27.8281C56.5561 27.3553 56.3086 26.7199 56.3086 25.922C56.3086 25.1477 56.5531 24.5094 57.042 24.007C57.5066 23.5401 58.0597 23.3066 58.7015 23.3066C59.386 23.3066 59.9208 23.5312 60.3059 23.9804C60.6665 24.406 60.8468 24.9734 60.8468 25.6826C60.8468 25.789 60.8407 25.9131 60.8285 26.055C60.8162 26.1141 60.7796 26.1673 60.7184 26.2146C60.6573 26.256 60.587 26.2766 60.5076 26.2766H59.1965H57.6196C57.6746 26.6786 57.8305 26.9859 58.0872 27.1987C58.3317 27.4114 58.6495 27.5178 59.0407 27.5178C59.2913 27.5178 59.5296 27.4735 59.7558 27.3848C60.0492 27.2371 60.2753 27.3051 60.4342 27.5888C60.5748 27.8488 60.5259 28.0468 60.2875 28.1828C59.823 28.4074 59.3463 28.5197 58.8573 28.5197ZM57.6013 25.4167H58.6465H59.6916C59.6916 25.068 59.6122 24.799 59.4532 24.6099C59.2882 24.4148 59.0437 24.3173 58.7198 24.3173C58.4386 24.3173 58.1972 24.4089 57.9955 24.5922C57.7816 24.7931 57.6502 25.068 57.6013 25.4167Z" fill="black"/>
<path d="M51.4349 28.3951C50.9887 28.3951 50.7656 28.1794 50.7656 27.7479V24.8577V21.9675C50.7656 21.536 50.9887 21.3203 51.4349 21.3203C51.8811 21.3203 52.1042 21.536 52.1042 21.9675V23.1023L52.0492 24.0332C52.587 23.5486 53.1249 23.3062 53.6627 23.3062C54.7201 23.3062 55.2488 23.9711 55.2488 25.301V27.7479C55.2488 28.1794 55.0257 28.3951 54.5795 28.3951C54.1273 28.3951 53.9011 28.1794 53.9011 27.7479V25.4606C53.9011 25.0823 53.843 24.8163 53.7269 24.6627C53.6169 24.5031 53.4335 24.4233 53.1768 24.4233C52.9812 24.4233 52.7979 24.4706 52.6267 24.5651C52.4923 24.642 52.3181 24.7809 52.1042 24.9818V27.7479C52.1042 28.1794 51.8811 28.3951 51.4349 28.3951Z" fill="black"/>
<path d="M45.0951 28.5197C44.4228 28.5197 43.8513 28.2921 43.3807 27.837C42.8795 27.3464 42.6289 26.7081 42.6289 25.922C42.6289 25.1241 42.8795 24.4799 43.3807 23.9893C43.8452 23.5342 44.4167 23.3066 45.0951 23.3066C45.7674 23.3066 46.3389 23.5342 46.8096 23.9893C47.3107 24.4858 47.5613 25.13 47.5613 25.922C47.5613 26.7081 47.3107 27.3464 46.8096 27.837C46.3389 28.2921 45.7674 28.5197 45.0951 28.5197ZM45.0951 27.4558C45.4374 27.4558 45.7063 27.3169 45.9019 27.0391C46.0914 26.7672 46.1861 26.3948 46.1861 25.922C46.1861 25.4433 46.0914 25.068 45.9019 24.7961C45.7063 24.5124 45.4374 24.3705 45.0951 24.3705C44.7467 24.3705 44.4778 24.5124 44.2883 24.7961C44.0989 25.068 44.0041 25.4433 44.0041 25.922C44.0041 26.3948 44.0989 26.7672 44.2883 27.0391C44.4839 27.3169 44.7528 27.4558 45.0951 27.4558Z" fill="black"/>
<path d="M39.4031 28.5198C38.4435 28.5198 37.6703 28.2302 37.0836 27.6509C36.4602 27.0422 36.1484 26.2058 36.1484 25.142C36.1484 24.0899 36.4663 23.2477 37.1019 22.6152C37.7009 22.0124 38.468 21.7109 39.4031 21.7109C40.0693 21.7109 40.6561 21.8942 41.1634 22.2606C41.2856 22.367 41.3467 22.4763 41.3467 22.5886C41.3406 22.6891 41.2795 22.8073 41.1634 22.9433C40.9128 23.2388 40.6377 23.2772 40.3383 23.0585C40.0754 22.9108 39.779 22.8369 39.449 22.8369C38.8744 22.8369 38.413 23.0378 38.0646 23.4397C37.7101 23.8476 37.5328 24.4002 37.5328 25.0976C37.5328 25.8246 37.7009 26.3831 38.0371 26.7732C38.3855 27.1811 38.8866 27.385 39.5406 27.385C39.9074 27.385 40.1916 27.3022 40.3933 27.1367V25.8423H39.7423C39.3756 25.8423 39.1922 25.6621 39.1922 25.3015C39.1922 24.9469 39.3756 24.7696 39.7423 24.7696H40.3933H41.0259C41.2031 24.7696 41.3437 24.8198 41.4476 24.9203C41.5515 25.0208 41.6035 25.1567 41.6035 25.3281V27.4204C41.6035 27.6214 41.5332 27.7839 41.3926 27.908C40.8425 28.3159 40.1793 28.5198 39.4031 28.5198Z" fill="black"/>
<g filter="url(#filter0_d_2422_18322)">
<path d="M71.6155 18.6619C71.3873 18.9653 71.0879 19.0251 70.7171 18.8412C70.2132 18.5837 70.0991 18.2482 70.3748 17.8344C70.5269 17.5402 70.6505 17.2368 70.7456 16.9242C70.8121 16.6576 70.9405 16.4691 71.1306 16.3588C71.3208 16.2485 71.549 16.2347 71.8152 16.3174L72.243 16.4415V16.414C72.2335 16.3404 72.2621 16.276 72.3286 16.2209C72.4047 16.1565 72.4902 16.1197 72.5853 16.1106C72.804 16.083 72.9989 16.106 73.17 16.1795C73.3697 16.2623 73.4838 16.391 73.5123 16.5657C73.5884 17.1541 73.6359 17.6092 73.6549 17.931C73.6644 18.2711 73.4743 18.4642 73.0845 18.5102C72.6186 18.5654 72.3856 18.3815 72.3856 17.9586C72.3761 17.554 72.3381 17.1081 72.2716 16.6208C72.167 17.1633 72.0481 17.6184 71.915 17.9861C71.8295 18.2252 71.7296 18.4504 71.6155 18.6619ZM78.3755 19.1032C78.0427 19.1032 77.7622 19.0297 77.534 18.8826C77.2773 18.7171 77.149 18.4964 77.149 18.2206V17.8482L77.1205 17.862C76.3694 18.1562 75.8369 17.9218 75.5232 17.1587C75.2094 16.3956 75.4281 15.8853 76.1792 15.6279L76.2077 15.6141C74.021 15.7152 72.3143 15.7888 71.0879 15.8347C70.8121 15.8439 70.6172 15.7842 70.5031 15.6554C70.3986 15.5267 70.3415 15.3199 70.332 15.0349C70.313 14.474 70.5649 14.189 71.0879 14.1798C71.2685 14.1706 71.549 14.166 71.9293 14.166C72.3001 14.1568 72.5806 14.1522 72.7707 14.1522V13.7247H71.4444C70.931 13.7247 70.6743 13.4765 70.6743 12.98C70.6743 12.4835 70.931 12.2353 71.4444 12.2353H72.7707V11.8353H71.5157C71.24 11.8353 71.0165 11.7526 70.8454 11.5871C70.6743 11.4216 70.5887 11.2055 70.5887 10.9389V7.28428C70.5887 7.01766 70.6743 6.8016 70.8454 6.6361C71.0165 6.47061 71.24 6.38786 71.5157 6.38786H73.712H75.9082C76.184 6.38786 76.4074 6.47061 76.5785 6.6361C76.7497 6.8016 76.8352 7.01766 76.8352 7.28428V10.9389C76.8352 11.2055 76.7497 11.4216 76.5785 11.5871C76.4074 11.7526 76.184 11.8353 75.9082 11.8353H74.5677V12.2353H75.951C76.4644 12.2353 76.7211 12.4835 76.7211 12.98C76.7211 13.4765 76.4644 13.7247 75.951 13.7247H74.5677V14.0971C74.7388 14.0879 74.9955 14.0787 75.3378 14.0695C75.6896 14.0603 75.951 14.0557 76.1222 14.0557C76.6831 14.0373 76.9541 14.3177 76.9351 14.8969C76.916 15.3474 76.6926 15.5865 76.2648 15.6141H76.2362C76.6356 16.2117 76.9398 16.8185 77.149 17.4345V13.4075C77.149 13.1409 77.2346 12.9248 77.4057 12.7593C77.5768 12.5938 77.8003 12.5111 78.076 12.5111H78.9317V6.98088C78.9317 6.34649 79.2644 6.0293 79.93 6.0293C80.586 6.0293 80.914 6.34649 80.914 6.98088V8.78751H82.5398C83.1768 8.78751 83.4953 9.09551 83.4953 9.71151C83.4953 10.3275 83.1768 10.6355 82.5398 10.6355H80.914V12.5111H82.1262C82.402 12.5111 82.6254 12.5938 82.7965 12.7593C82.9677 12.9248 83.0532 13.1409 83.0532 13.4075V17.7379C83.0532 18.0045 82.9677 18.2206 82.7965 18.3861C82.6254 18.5516 82.402 18.6343 82.1262 18.6343H78.9887V18.6619C78.9887 18.7998 78.9222 18.9101 78.7891 18.9929C78.675 19.0664 78.5371 19.1032 78.3755 19.1032ZM74.8244 18.3309C74.387 18.4228 74.1398 18.262 74.0828 17.8482C74.0638 17.7379 74.0257 17.5632 73.9687 17.3242C73.9116 17.0483 73.8641 16.8415 73.8261 16.7036C73.7025 16.3082 73.8546 16.0738 74.2824 16.0002C74.6532 15.9451 74.8862 16.0784 74.9812 16.4002C75.1239 16.8231 75.2332 17.2598 75.3093 17.7103C75.3568 18.0413 75.1952 18.2482 74.8244 18.3309ZM78.9887 16.8277H80.7571C80.9853 16.8277 81.0994 16.7174 81.0994 16.4967V14.6487C81.0994 14.428 80.9853 14.3177 80.7571 14.3177H79.331C79.1028 14.3177 78.9887 14.428 78.9887 14.6487V15.5727V16.8277ZM72.4284 10.5252H73.0702V9.94595L72.6566 10.0839C72.4379 10.1574 72.3191 10.0839 72.3001 9.86321C72.3001 9.82643 72.2906 9.77127 72.2716 9.69772C72.2621 9.62416 72.2525 9.569 72.243 9.53222C72.2145 9.36673 72.1622 9.11849 72.0862 8.78751V10.1942C72.0862 10.4148 72.2003 10.5252 72.4284 10.5252ZM74.2682 10.5252H74.9242C75.1524 10.5252 75.2665 10.4148 75.2665 10.1942V9.13228C75.2379 9.18745 75.2047 9.2656 75.1666 9.36673C75.1001 9.51383 75.0525 9.62416 75.024 9.69772C74.986 9.80804 74.9432 9.90458 74.8957 9.98733C74.8291 10.116 74.7293 10.1528 74.5962 10.0977L74.2682 9.97354V10.5252ZM74.2682 9.42189C74.3537 9.17366 74.425 8.92542 74.4821 8.67718C74.5011 8.60363 74.5296 8.4933 74.5677 8.34619C74.5772 8.31861 74.5819 8.29563 74.5819 8.27724C74.6104 8.09336 74.7293 8.0336 74.9385 8.09795L75.2665 8.20828V7.90488C75.2665 7.76697 75.1952 7.69801 75.0525 7.69801H74.2682V9.42189ZM73.0702 9.2564V7.69801H72.4284C72.2003 7.69801 72.0862 7.80834 72.0862 8.029V8.19449L72.457 8.08416C72.533 8.05658 72.6043 8.06118 72.6709 8.09795C72.7469 8.12554 72.7945 8.1761 72.8135 8.24966C72.823 8.28643 72.8373 8.34619 72.8563 8.42894C72.8848 8.51169 72.9038 8.57604 72.9133 8.62201C72.9799 8.87025 73.0322 9.08172 73.0702 9.2564Z" fill="black"/>
</g>
<g filter="url(#filter1_d_2422_18322)">
<path d="M61.7051 18.6213C61.4674 18.7684 61.2297 18.8236 60.992 18.7868C60.7543 18.75 60.5641 18.6259 60.4215 18.4144C60.2409 18.203 60.0888 18.0329 59.9652 17.9042V17.9318C59.9652 18.0329 59.8653 18.1202 59.6657 18.1938C59.4945 18.2581 59.3329 18.2903 59.1808 18.2903C58.9811 18.2903 58.7719 18.249 58.5533 18.1662C58.2871 18.0743 58.1539 17.9593 58.1539 17.8214V17.7938H56.8419V17.8214C56.8419 18.3363 56.5662 18.5937 56.0147 18.5937C55.4157 18.5937 55.1163 18.3179 55.1163 17.7663V17.0215C55.0307 17.3433 54.9309 17.6421 54.8168 17.918C54.6456 18.2673 54.4602 18.4742 54.2606 18.5386C54.0514 18.6029 53.7947 18.5248 53.4904 18.3041C53.2242 18.111 53.0674 17.8996 53.0198 17.6697C52.9818 17.4583 53.0341 17.1962 53.1767 16.8836C53.5 16.047 53.7234 15.0356 53.847 13.8496C53.923 13.0589 53.9611 12.0798 53.9611 10.9121V7.78155C53.9611 7.52411 54.0419 7.31265 54.2035 7.14716C54.3652 6.97247 54.5886 6.87134 54.8738 6.84376C56.1764 6.69665 57.303 6.49898 58.2538 6.25074C58.482 6.18638 58.6816 6.18179 58.8528 6.23695C59.0049 6.29211 59.176 6.40704 59.3662 6.58173C60.0507 7.21611 59.9414 7.63904 59.0382 7.8505C58.1254 8.04358 57.0606 8.20447 55.8436 8.33319V8.91241H57.883H58.9954C59.2711 8.91241 59.4945 8.99516 59.6657 9.16065C59.8368 9.32614 59.9224 9.5422 59.9224 9.80883V11.781C60.5309 10.6593 60.9682 9.11468 61.2344 7.14716C61.2725 6.80698 61.3913 6.55414 61.591 6.38865C61.7906 6.22316 62.0568 6.1588 62.3896 6.19558C63.0551 6.27832 63.3451 6.64149 63.2596 7.28507C63.2596 7.30346 63.2548 7.32644 63.2453 7.35403C63.1787 7.86889 63.1169 8.24585 63.0599 8.48489H65.4416C65.7458 8.48489 65.9835 8.59522 66.1546 8.81588C66.3163 9.01814 66.3971 9.28477 66.3971 9.61576C66.3971 9.81803 66.3495 9.98352 66.2545 10.1122C66.1404 10.2593 65.9883 10.3329 65.7981 10.3329H65.7696C65.5129 12.2636 65.066 13.9048 64.429 15.2563C64.7237 15.6884 65.0613 16.0884 65.4416 16.4561C65.8314 16.7595 66.0548 17.0399 66.1119 17.2974C66.1689 17.5824 66.0501 17.8996 65.7553 18.249C65.4891 18.5615 65.2229 18.7178 64.9567 18.7178C64.7 18.7087 64.4052 18.557 64.0725 18.2627C63.7777 17.9685 63.4925 17.6192 63.2168 17.2146C62.7699 17.7571 62.266 18.226 61.7051 18.6213ZM59.9652 16.8147C59.9652 17.0353 60.065 17.0859 60.2647 16.9664C61.0158 16.4975 61.6385 15.9137 62.1329 15.2149C61.9047 14.7001 61.6765 14.0427 61.4484 13.2428C61.4293 13.2796 61.3961 13.3347 61.3485 13.4083C61.2915 13.5186 61.2439 13.5968 61.2059 13.6427C61.1489 13.7255 61.0823 13.7715 61.0062 13.7807C60.9397 13.7898 60.8779 13.7669 60.8208 13.7117C60.5451 13.3899 60.2219 13.0635 59.8511 12.7325H55.7865C55.7675 13.0819 55.7485 13.3439 55.7295 13.5186H57.8402H59.0382C59.3139 13.5186 59.5373 13.6014 59.7085 13.7669C59.8796 13.9324 59.9652 14.1484 59.9652 14.415V16.8147ZM56.8419 16.2217H58.1539V15.4218C58.1539 15.2011 58.0399 15.0908 57.8117 15.0908H57.4979H56.8419V16.2217ZM63.2453 12.9808C63.4069 12.5119 63.5305 12.089 63.6161 11.712C63.7397 11.2431 63.8348 10.7834 63.9013 10.3329H62.6178L62.5465 10.5535C62.7176 11.335 62.9506 12.1441 63.2453 12.9808ZM55.8436 11.1466H56.9702H58.1112V10.7742C58.1112 10.5811 58.0113 10.4846 57.8117 10.4846H55.8436V10.9121V11.1466Z" fill="black"/>
</g>
<g filter="url(#filter2_d_2422_18322)">
<path d="M44.4489 18.979C44.1447 18.9698 43.8927 18.8916 43.6931 18.7445C43.5029 18.5974 43.3841 18.4043 43.3365 18.1653C43.308 18.0734 43.2795 17.9768 43.2509 17.8757C43.0988 17.5631 43.0846 17.324 43.2082 17.1586C43.3413 16.9931 43.617 16.9195 44.0353 16.9379C44.2445 16.9471 44.5012 16.9517 44.8054 16.9517C45.0717 16.9517 45.2903 16.8735 45.4615 16.7172C45.6706 16.515 45.8418 15.9541 45.9749 15.0347C46.108 14.1153 46.2268 12.727 46.3314 10.8698H42.8231C42.5569 14.244 41.2401 16.777 38.8727 18.4687C38.5209 18.6802 38.1929 18.7997 37.8886 18.8273C37.5273 18.8549 37.2279 18.7445 36.9902 18.4963C36.6669 18.1653 36.5861 17.8205 36.7477 17.462C36.8903 17.1586 37.1946 16.8597 37.6604 16.5655C39.3718 15.2048 40.3559 13.3063 40.6126 10.8698H37.5749C36.8713 10.8698 36.5195 10.5251 36.5195 9.83551C36.5195 9.15515 36.8713 8.81497 37.5749 8.81497H40.6981V7.10488C40.6981 6.39694 41.0642 6.04297 41.7963 6.04297C42.5284 6.04297 42.8944 6.39694 42.8944 7.10488V8.81497H45.7182H47.6007C47.9144 8.81497 48.1426 8.93449 48.2852 9.17354C48.4374 9.44936 48.4944 9.91825 48.4564 10.5802C48.3233 13.0626 48.1759 14.8371 48.0143 15.9036C47.8526 16.9701 47.6292 17.678 47.344 18.0274C47.1253 18.3124 46.8829 18.5193 46.6167 18.648C46.398 18.7583 46.1128 18.8411 45.761 18.8962C45.4187 18.9514 44.9813 18.979 44.4489 18.979Z" fill="black"/>
</g>
<g filter="url(#filter3_d_2422_18322)">
<path d="M21.3303 17.9715C20.9215 18.6334 20.4128 18.7254 19.8044 18.2473C19.5191 18.0266 19.3527 17.806 19.3052 17.5853C19.2577 17.3647 19.3337 17.1164 19.5334 16.8406C19.8376 16.3993 20.0896 16.0131 20.2892 15.6821C20.4699 15.3971 20.7409 14.9512 21.1021 14.3444C21.4825 13.6549 21.9673 13.5721 22.5568 14.0962C22.9752 14.4731 23.0607 14.8961 22.8135 15.365C22.3096 16.2936 21.8152 17.1624 21.3303 17.9715ZM24.8672 18.5507C24.5915 18.5507 24.368 18.4679 24.1969 18.3024C24.0257 18.137 23.9402 17.9209 23.9402 17.6543V14.2893C23.9402 14.0226 24.0257 13.8066 24.1969 13.6411C24.368 13.4756 24.5915 13.3928 24.8672 13.3928H26.7497V11.931H24.1256C23.4696 11.931 23.1415 11.6092 23.1415 10.9656C23.1415 10.3312 23.4696 10.014 24.1256 10.014H26.7497V8.74526C26.2173 8.828 25.6563 8.89696 25.0668 8.95212C24.7626 8.9797 24.5201 8.94293 24.3395 8.84179C24.1684 8.74066 24.0353 8.55218 23.9402 8.27636C23.8261 7.93618 23.8499 7.67875 24.0115 7.50406C24.1541 7.34776 24.4251 7.24663 24.8244 7.20066C26.7354 6.95242 28.2757 6.63063 29.4451 6.23528C29.7018 6.13415 29.93 6.11576 30.1297 6.18012C30.3008 6.23528 30.491 6.3686 30.7001 6.58006C31.3466 7.23284 31.2373 7.70633 30.3721 8.00054C29.7731 8.16603 29.2169 8.29934 28.7035 8.40048V10.014H31.1565C31.8125 10.014 32.1405 10.3312 32.1405 10.9656C32.1405 11.6092 31.8125 11.931 31.1565 11.931H28.7035V13.3928H30.6288C30.9045 13.3928 31.128 13.4756 31.2991 13.6411C31.4702 13.8066 31.5558 14.0226 31.5558 14.2893V17.6543C31.5558 17.9209 31.4702 18.137 31.2991 18.3024C31.128 18.4679 30.9045 18.5507 30.6288 18.5507H27.6909H24.8672ZM26.1364 16.7441H27.6909H29.2597C29.4879 16.7441 29.602 16.6337 29.602 16.4131V15.5304C29.602 15.3098 29.4879 15.1995 29.2597 15.1995H26.1364C25.9083 15.1995 25.7942 15.3098 25.7942 15.5304V16.4131C25.7942 16.6337 25.9083 16.7441 26.1364 16.7441ZM22.0862 12.1241C21.7059 12.6849 21.2305 12.7906 20.66 12.4413C20.5364 12.3677 20.4081 12.2987 20.275 12.2344C20.1894 12.1884 20.0611 12.1149 19.8899 12.0137C19.8139 11.977 19.7616 11.9494 19.733 11.931C19.1436 11.6184 19.0532 11.1909 19.4621 10.6484C19.7853 10.2071 20.1799 10.0922 20.6458 10.3036C20.893 10.414 21.2733 10.5933 21.7867 10.8415C22.0909 11.007 22.2668 11.1909 22.3144 11.3931C22.3619 11.5954 22.2858 11.839 22.0862 12.1241ZM22.6709 8.35911C22.2716 8.89236 21.7914 8.9797 21.2305 8.62114C21.1925 8.59355 21.1307 8.55678 21.0451 8.51081C20.969 8.46484 20.912 8.43266 20.874 8.41427C20.8264 8.37749 20.7456 8.33152 20.6315 8.27636C20.5269 8.212 20.4461 8.16603 20.3891 8.13845C19.8091 7.80746 19.733 7.37534 20.1609 6.84209C20.5032 6.41917 20.9025 6.31343 21.3589 6.5249C21.6346 6.66281 21.9911 6.84669 22.4285 7.07654C22.7422 7.24203 22.9134 7.43051 22.9419 7.64197C22.9799 7.84424 22.8896 8.08328 22.6709 8.35911Z" fill="black"/>
</g>
<defs>
<filter id="filter0_d_2422_18322" x="70.2285" y="6.0293" width="13.2676" height="13.0742" filterUnits="userSpaceOnUse" color-interpolation-filters="sRGB">
<feFlood flood-opacity="0" result="BackgroundImageFix"/>
<feColorMatrix in="SourceAlpha" type="matrix" values="0 0 0 0 0 0 0 0 0 0 0 0 0 0 0 0 0 0 127 0" result="hardAlpha"/>
<feOffset/>
<feComposite in2="hardAlpha" operator="out"/>
<feColorMatrix type="matrix" values="0 0 0 0 0.86 0 0 0 0 1 0 0 0 0 0 0 0 0 1 0"/>
<feBlend mode="normal" in2="BackgroundImageFix" result="effect1_dropShadow_2422_18322"/>
<feBlend mode="normal" in="SourceGraphic" in2="effect1_dropShadow_2422_18322" result="shape"/>
</filter>
<filter id="filter1_d_2422_18322" x="53.0078" y="6.18555" width="13.3887" height="12.6113" filterUnits="userSpaceOnUse" color-interpolation-filters="sRGB">
<feFlood flood-opacity="0" result="BackgroundImageFix"/>
<feColorMatrix in="SourceAlpha" type="matrix" values="0 0 0 0 0 0 0 0 0 0 0 0 0 0 0 0 0 0 127 0" result="hardAlpha"/>
<feOffset/>
<feComposite in2="hardAlpha" operator="out"/>
<feColorMatrix type="matrix" values="0 0 0 0 0.86 0 0 0 0 1 0 0 0 0 0 0 0 0 1 0"/>
<feBlend mode="normal" in2="BackgroundImageFix" result="effect1_dropShadow_2422_18322"/>
<feBlend mode="normal" in="SourceGraphic" in2="effect1_dropShadow_2422_18322" result="shape"/>
</filter>
<filter id="filter2_d_2422_18322" x="36.5195" y="6.04297" width="11.9492" height="12.9355" filterUnits="userSpaceOnUse" color-interpolation-filters="sRGB">
<feFlood flood-opacity="0" result="BackgroundImageFix"/>
<feColorMatrix in="SourceAlpha" type="matrix" values="0 0 0 0 0 0 0 0 0 0 0 0 0 0 0 0 0 0 127 0" result="hardAlpha"/>
<feOffset/>
<feComposite in2="hardAlpha" operator="out"/>
<feColorMatrix type="matrix" values="0 0 0 0 0.86 0 0 0 0 1 0 0 0 0 0 0 0 0 1 0"/>
<feBlend mode="normal" in2="BackgroundImageFix" result="effect1_dropShadow_2422_18322"/>
<feBlend mode="normal" in="SourceGraphic" in2="effect1_dropShadow_2422_18322" result="shape"/>
</filter>
<filter id="filter3_d_2422_18322" x="19.2109" y="6.14258" width="12.9297" height="12.4082" filterUnits="userSpaceOnUse" color-interpolation-filters="sRGB">
<feFlood flood-opacity="0" result="BackgroundImageFix"/>
<feColorMatrix in="SourceAlpha" type="matrix" values="0 0 0 0 0 0 0 0 0 0 0 0 0 0 0 0 0 0 127 0" result="hardAlpha"/>
<feOffset/>
<feComposite in2="hardAlpha" operator="out"/>
<feColorMatrix type="matrix" values="0 0 0 0 0.86 0 0 0 0 1 0 0 0 0 0 0 0 0 1 0"/>
<feBlend mode="normal" in2="BackgroundImageFix" result="effect1_dropShadow_2422_18322"/>
<feBlend mode="normal" in="SourceGraphic" in2="effect1_dropShadow_2422_18322" result="shape"/>
</filter>
<linearGradient id="paint0_linear_2422_18322" x1="13.2428" y1="21.8708" x2="25.19" y2="13.1195" gradientUnits="userSpaceOnUse">
<stop/>
<stop offset="1" stop-color="#666666" stop-opacity="0"/>
</linearGradient>
</defs>
</svg>
