<svg width="76" height="81" viewBox="0 0 76 81" fill="none" xmlns="http://www.w3.org/2000/svg">
<g filter="url(#filter0_d_3934_16279)">
<path d="M38 60C34.4225 60 31.0425 58.6225 28.4825 56.12L18.625 47.0125C13.36 41.75 10.5 34.845 10.5 27.5C10.5 20.155 13.36 13.2475 18.555 8.055C23.7475 2.8625 30.655 0 38 0C45.345 0 52.25 2.8625 57.445 8.055C62.64 13.2475 65.5 20.1525 65.5 27.5C65.5 34.8475 62.6375 41.75 57.445 46.945L47.465 56.1675C44.9575 58.62 41.5775 60 37.9975 60H38Z" fill="#FFC800"/>
</g>
<path d="M38 60C34.4225 60 31.0425 58.6225 28.4825 56.12L18.625 47.0125C13.36 41.75 10.5 34.845 10.5 27.5C10.5 20.155 13.36 13.2475 18.555 8.055C23.7475 2.8625 30.655 0 38 0C45.345 0 52.25 2.8625 57.445 8.055C62.64 13.2475 65.5 20.1525 65.5 27.5C65.5 34.8475 62.6375 41.75 57.445 46.945L47.465 56.1675C44.9575 58.62 41.5775 60 37.9975 60H38ZM38 5C31.99 5 26.3375 7.34 22.09 11.59C17.84 15.84 15.5 21.4875 15.5 27.5C15.5 33.5125 17.84 39.16 22.09 43.41L31.9275 52.4975C35.2675 55.7625 40.785 55.7125 44.02 52.5475L53.98 43.3425C58.1575 39.16 60.5 33.51 60.5 27.5025C60.5 21.495 58.1575 15.8425 53.91 11.5925C49.66 7.3425 44.01 5 38 5ZM49.7675 32.625C50.745 31.6475 50.745 30.0675 49.7675 29.09C48.79 28.1125 47.21 28.1125 46.2325 29.09C44.035 31.2875 41.11 32.5 38 32.5C34.89 32.5 31.965 31.29 29.7675 29.09C28.79 28.1125 27.21 28.1125 26.2325 29.09C25.255 30.0675 25.255 31.6475 26.2325 32.625C29.375 35.7675 33.555 37.5 38 37.5C42.445 37.5 46.625 35.77 49.7675 32.625ZM31.75 17.5C29.68 17.5 28 19.18 28 21.25C28 23.32 29.68 25 31.75 25C33.82 25 35.5 23.32 35.5 21.25C35.5 19.18 33.82 17.5 31.75 17.5ZM44.25 17.5C42.18 17.5 40.5 19.18 40.5 21.25C40.5 23.32 42.18 25 44.25 25C46.32 25 48 23.32 48 21.25C48 19.18 46.32 17.5 44.25 17.5Z" fill="#1A394A"/>
<defs>
<filter id="filter0_d_3934_16279" x="0.5" y="0" width="75" height="81" filterUnits="userSpaceOnUse" color-interpolation-filters="sRGB">
<feFlood flood-opacity="0" result="BackgroundImageFix"/>
<feColorMatrix in="SourceAlpha" type="matrix" values="0 0 0 0 0 0 0 0 0 0 0 0 0 0 0 0 0 0 127 0" result="hardAlpha"/>
<feOffset dy="11"/>
<feGaussianBlur stdDeviation="5"/>
<feComposite in2="hardAlpha" operator="out"/>
<feColorMatrix type="matrix" values="0 0 0 0 0.2 0 0 0 0 0.2 0 0 0 0 0.2 0 0 0 0.19 0"/>
<feBlend mode="normal" in2="BackgroundImageFix" result="effect1_dropShadow_3934_16279"/>
<feBlend mode="normal" in="SourceGraphic" in2="effect1_dropShadow_3934_16279" result="shape"/>
</filter>
</defs>
</svg>
