<svg width="358" height="34" viewBox="0 0 358 34" fill="none" xmlns="http://www.w3.org/2000/svg">
<path d="M29.825 16.5526C29.825 24.3714 23.4846 30.7105 15.6625 30.7105C7.84035 30.7105 1.5 24.3714 1.5 16.5526C1.5 8.73385 7.84035 2.39473 15.6625 2.39473C23.4846 2.39473 29.825 8.73385 29.825 16.5526Z" fill="#FFC800" stroke="url(#paint0_linear_1201_4954)" stroke-width="3"/>
<g filter="url(#filter0_d_1201_4954)">
<path d="M176.526 32.2956C175.961 33.0713 175.221 33.224 174.304 32.7539C173.058 32.0958 172.776 31.2379 173.457 30.1802C173.834 29.428 174.139 28.6524 174.374 27.8532C174.539 27.1716 174.856 26.6897 175.327 26.4076C175.797 26.1256 176.361 26.0903 177.019 26.3019L178.077 26.6192V26.5487C178.054 26.3606 178.124 26.1961 178.289 26.0551C178.477 25.8905 178.689 25.7965 178.924 25.773C179.465 25.7025 179.947 25.7613 180.37 25.9493C180.864 26.1608 181.146 26.4899 181.216 26.9365C181.404 28.4408 181.522 29.6043 181.569 30.427C181.592 31.2966 181.122 31.7902 180.158 31.9078C179.006 32.0488 178.43 31.5787 178.43 30.4975C178.407 29.4633 178.313 28.3233 178.148 27.0775C177.889 28.4643 177.595 29.6278 177.266 30.568C177.055 31.1791 176.808 31.755 176.526 32.2956ZM193.243 33.4238C192.42 33.4238 191.726 33.2358 191.162 32.8597C190.527 32.4366 190.21 31.8725 190.21 31.1674V30.2154L190.139 30.2507C188.282 31.0028 186.965 30.4035 186.189 28.4526C185.413 26.5017 185.954 25.1972 187.811 24.539L187.882 24.5038C182.474 24.7623 178.254 24.9504 175.221 25.0679C174.539 25.0914 174.057 24.9386 173.775 24.6095C173.516 24.2805 173.375 23.7516 173.352 23.023C173.305 21.5892 173.928 20.8605 175.221 20.837C175.668 20.8135 176.361 20.8018 177.302 20.8018C178.219 20.7782 178.912 20.7665 179.382 20.7665V19.6735H176.102C174.833 19.6735 174.198 19.0389 174.198 17.7696C174.198 16.5004 174.833 15.8657 176.102 15.8657H179.382V14.8433H176.279C175.597 14.8433 175.044 14.6317 174.621 14.2087C174.198 13.7856 173.986 13.2332 173.986 12.5516V3.20842C173.986 2.52678 174.198 1.97442 174.621 1.55133C175.044 1.12824 175.597 0.916701 176.279 0.916701H181.71H187.141C187.823 0.916701 188.376 1.12824 188.799 1.55133C189.222 1.97442 189.434 2.52678 189.434 3.20842V12.5516C189.434 13.2332 189.222 13.7856 188.799 14.2087C188.376 14.6317 187.823 14.8433 187.141 14.8433H183.826V15.8657H187.247C188.517 15.8657 189.151 16.5004 189.151 17.7696C189.151 19.0389 188.517 19.6735 187.247 19.6735H183.826V20.6255C184.249 20.602 184.884 20.5785 185.731 20.555C186.6 20.5314 187.247 20.5197 187.67 20.5197C189.057 20.4727 189.728 21.1896 189.68 22.6704C189.633 23.8221 189.081 24.4332 188.023 24.5038H187.952C188.94 26.0316 189.692 27.5829 190.21 29.1577V18.8626C190.21 18.181 190.421 17.6286 190.844 17.2055C191.268 16.7824 191.82 16.5709 192.502 16.5709H194.618V2.43276C194.618 0.810931 195.441 1.52588e-05 197.087 1.52588e-05C198.709 1.52588e-05 199.52 0.810931 199.52 2.43276V7.05145H203.541C205.116 7.05145 205.904 7.83886 205.904 9.41368C205.904 10.9885 205.116 11.7759 203.541 11.7759H199.52V16.5709H202.518C203.2 16.5709 203.752 16.7824 204.175 17.2055C204.599 17.6286 204.81 18.181 204.81 18.8626V29.9334C204.81 30.615 204.599 31.1674 204.175 31.5905C203.752 32.0135 203.2 32.2251 202.518 32.2251H194.759V32.2956C194.759 32.6482 194.594 32.9302 194.265 33.1418C193.983 33.3298 193.642 33.4238 193.243 33.4238ZM184.461 31.4494C183.379 31.6845 182.768 31.2731 182.627 30.2154C182.58 29.9334 182.486 29.4868 182.345 28.8757C182.204 28.1705 182.086 27.6416 181.992 27.2891C181.687 26.2784 182.063 25.679 183.121 25.491C184.038 25.3499 184.614 25.6908 184.849 26.5134C185.202 27.5946 185.472 28.7111 185.66 29.8629C185.778 30.709 185.378 31.2379 184.461 31.4494ZM194.759 27.6064H199.132C199.696 27.6064 199.979 27.3243 199.979 26.7602V22.0358C199.979 21.4716 199.696 21.1896 199.132 21.1896H195.605C195.041 21.1896 194.759 21.4716 194.759 22.0358V24.398V27.6064ZM178.536 11.4939H180.123V10.0131L179.1 10.3656C178.559 10.5537 178.266 10.3656 178.219 9.80151C178.219 9.70749 178.195 9.56647 178.148 9.37843C178.124 9.19039 178.101 9.04936 178.077 8.95534C178.007 8.53225 177.878 7.89762 177.69 7.05145V10.6477C177.69 11.2118 177.972 11.4939 178.536 11.4939ZM183.085 11.4939H184.708C185.272 11.4939 185.554 11.2118 185.554 10.6477V7.93288C185.484 8.07391 185.401 8.2737 185.307 8.53225C185.143 8.90833 185.025 9.19039 184.955 9.37843C184.861 9.66048 184.755 9.90728 184.637 10.1188C184.473 10.4479 184.226 10.5419 183.897 10.4009L183.085 10.0836V11.4939ZM183.085 8.67328C183.297 8.03865 183.473 7.40402 183.614 6.76939C183.661 6.58136 183.732 6.2993 183.826 5.92322C183.85 5.85271 183.861 5.79395 183.861 5.74694C183.932 5.27684 184.226 5.12406 184.743 5.28859L185.554 5.57065V4.79499C185.554 4.44242 185.378 4.26613 185.025 4.26613H183.085V8.67328ZM180.123 8.2502V4.26613H178.536C177.972 4.26613 177.69 4.54819 177.69 5.11231V5.53539L178.606 5.25334C178.795 5.18282 178.971 5.19457 179.135 5.28859C179.324 5.35911 179.441 5.48838 179.488 5.67642C179.512 5.77044 179.547 5.92322 179.594 6.13477C179.665 6.34631 179.712 6.51084 179.735 6.62837C179.9 7.263 180.029 7.80361 180.123 8.2502Z" fill="black"/>
</g>
<g filter="url(#filter1_d_1201_4954)">
<path d="M152.015 32.1899C151.428 32.566 150.84 32.707 150.252 32.613C149.664 32.5189 149.194 32.2016 148.841 31.661C148.395 31.1204 148.018 30.6856 147.713 30.3565V30.427C147.713 30.6856 147.466 30.9089 146.972 31.0969C146.549 31.2614 146.149 31.3437 145.773 31.3437C145.279 31.3437 144.762 31.2379 144.221 31.0264C143.563 30.7913 143.234 30.4975 143.234 30.145V30.0744H139.989V30.145C139.989 31.4612 139.307 32.1194 137.944 32.1194C136.462 32.1194 135.722 31.4142 135.722 30.0039V28.1C135.51 28.9227 135.263 29.6866 134.981 30.3918C134.558 31.2849 134.1 31.8138 133.606 31.9783C133.089 32.1429 132.454 31.9431 131.701 31.379C131.043 30.8854 130.655 30.3447 130.538 29.7571C130.443 29.2165 130.573 28.5466 130.925 27.7475C131.725 25.6085 132.277 23.023 132.583 19.9909C132.771 17.9695 132.865 15.4662 132.865 12.4811V4.47772C132.865 3.81959 133.065 3.27898 133.465 2.85589C133.864 2.4093 134.417 2.15075 135.122 2.08024C138.343 1.70416 141.13 1.19881 143.481 0.564177C144.045 0.399644 144.539 0.387892 144.962 0.52892C145.338 0.669948 145.761 0.963759 146.232 1.41035C147.924 3.03218 147.654 4.1134 145.42 4.65401C143.163 5.14761 140.53 5.55895 137.52 5.88801V7.36881H142.564H145.315C145.996 7.36881 146.549 7.58036 146.972 8.00344C147.395 8.42653 147.607 8.97889 147.607 9.66053V14.7023C149.112 11.8347 150.193 7.88592 150.852 2.85589C150.946 1.98622 151.24 1.33983 151.733 0.916748C152.227 0.493663 152.885 0.32913 153.708 0.423148C155.354 0.634691 156.071 1.56313 155.86 3.20847C155.86 3.25548 155.848 3.31424 155.824 3.38475C155.66 4.70102 155.507 5.66472 155.366 6.27584H161.256C162.008 6.27584 162.596 6.5579 163.019 7.12201C163.419 7.63912 163.618 8.32076 163.618 9.16693C163.618 9.68404 163.501 10.1071 163.266 10.4362C162.984 10.8123 162.607 11.0003 162.137 11.0003H162.067C161.432 15.9363 160.327 20.1319 158.752 23.5871C159.48 24.6918 160.315 25.7143 161.256 26.6545C162.22 27.4302 162.772 28.1471 162.913 28.8052C163.054 29.5338 162.76 30.3447 162.031 31.2379C161.373 32.0371 160.715 32.4367 160.056 32.4367C159.422 32.4132 158.693 32.0253 157.87 31.2732C157.141 30.521 156.436 29.6279 155.754 28.5936C154.649 29.9804 153.403 31.1792 152.015 32.1899ZM147.713 27.5712C147.713 28.1353 147.96 28.2646 148.453 27.959C150.311 26.7603 151.851 25.2677 153.073 23.4813C152.509 22.1651 151.945 20.4845 151.381 18.4396C151.334 18.5336 151.251 18.6746 151.134 18.8627C150.993 19.1447 150.875 19.3445 150.781 19.462C150.64 19.6736 150.475 19.7911 150.287 19.8146C150.123 19.8381 149.97 19.7793 149.829 19.6383C149.147 18.8156 148.348 17.9812 147.431 17.1351H137.379C137.332 18.0282 137.285 18.6981 137.238 19.1447H142.458H145.42C146.102 19.1447 146.655 19.3563 147.078 19.7793C147.501 20.2024 147.713 20.7548 147.713 21.4364V27.5712ZM139.989 26.0551H143.234V24.0102C143.234 23.4461 142.952 23.164 142.387 23.164H141.612H139.989V26.0551ZM155.824 17.7697C156.224 16.5709 156.53 15.4897 156.741 14.526C157.047 13.3273 157.282 12.152 157.447 11.0003H154.273L154.096 11.5644C154.519 13.5623 155.095 15.6307 155.824 17.7697ZM137.52 13.0805H140.307H143.128V12.1285C143.128 11.6349 142.881 11.3881 142.387 11.3881H137.52V12.4811V13.0805Z" fill="black"/>
</g>
<g filter="url(#filter2_d_1201_4954)">
<path d="M109.341 33.1065C108.589 33.083 107.966 32.8832 107.472 32.5071C107.002 32.131 106.708 31.6374 106.59 31.0263C106.52 30.7912 106.449 30.5444 106.379 30.2859C106.003 29.4867 105.967 28.8756 106.273 28.4525C106.602 28.0294 107.284 27.8414 108.318 27.8884C108.836 27.9119 109.47 27.9237 110.223 27.9237C110.881 27.9237 111.422 27.7239 111.845 27.3243C112.362 26.8072 112.786 25.3734 113.115 23.0229C113.444 20.6724 113.738 17.1232 113.997 12.3752H105.321C104.662 21.0015 101.406 27.4771 95.5516 31.8019C94.6816 32.3426 93.8705 32.6481 93.1181 32.7186C92.2247 32.7891 91.484 32.5071 90.8963 31.8725C90.0969 31.0263 89.897 30.1449 90.2967 29.2282C90.6494 28.4525 91.4018 27.6886 92.5538 26.9365C96.7859 23.4577 99.2194 18.604 99.8542 12.3752H92.3422C90.6024 12.3752 89.7324 11.4938 89.7324 9.73094C89.7324 7.99159 90.6024 7.12191 92.3422 7.12191H100.066V2.75002C100.066 0.940152 100.971 0.0352173 102.781 0.0352173C104.592 0.0352173 105.497 0.940152 105.497 2.75002V7.12191H112.48H117.135C117.911 7.12191 118.475 7.42747 118.828 8.0386C119.204 8.74374 119.345 9.94249 119.251 11.6348C118.922 17.9811 118.558 22.5175 118.158 25.2441C117.758 27.9707 117.206 29.7805 116.5 30.6737C115.96 31.4024 115.36 31.9312 114.702 32.2603C114.161 32.5423 113.456 32.7539 112.586 32.8949C111.739 33.0359 110.658 33.1065 109.341 33.1065Z" fill="black"/>
</g>
<g filter="url(#filter3_d_1201_4954)">
<path d="M52.1727 30.5328C51.1617 32.2251 49.9039 32.4602 48.3991 31.2379C47.6938 30.6738 47.2823 30.1097 47.1647 29.5456C47.0472 28.9815 47.2353 28.3468 47.729 27.6417C48.4814 26.5135 49.1045 25.5263 49.5982 24.6801C50.0449 23.9515 50.715 22.8115 51.6085 21.2602C52.5489 19.4973 53.748 19.2857 55.2057 20.6255C56.2403 21.5892 56.4519 22.6704 55.8406 23.8692C54.5944 26.2432 53.3718 28.4644 52.1727 30.5328ZM60.9191 32.0136C60.2373 32.0136 59.6847 31.802 59.2615 31.379C58.8383 30.9559 58.6267 30.4035 58.6267 29.7219V21.1191C58.6267 20.4375 58.8383 19.8851 59.2615 19.462C59.6847 19.0389 60.2373 18.8274 60.9191 18.8274H65.5744V15.0901H59.0852C57.4629 15.0901 56.6517 14.2675 56.6517 12.6221C56.6517 11.0003 57.4629 10.1894 59.0852 10.1894H65.5744V6.94573C64.2578 7.15728 62.8706 7.33356 61.4128 7.47459C60.6605 7.5451 60.0609 7.45108 59.6142 7.19253C59.191 6.93398 58.8618 6.45213 58.6267 5.74699C58.3446 4.87731 58.4033 4.21917 58.803 3.77258C59.1557 3.373 59.8258 3.11445 60.8133 2.99693C65.5391 2.3623 69.348 1.53963 72.24 0.528922C72.8748 0.27037 73.4391 0.22336 73.9328 0.387893C74.356 0.528923 74.8263 0.869743 75.3435 1.41035C76.9423 3.07919 76.6719 4.28969 74.5324 5.04184C73.0511 5.46493 71.6757 5.80575 70.4061 6.0643V10.1894H76.4721C78.0944 10.1894 78.9055 11.0003 78.9055 12.6221C78.9055 14.2675 78.0944 15.0901 76.4721 15.0901H70.4061V18.8274H75.1672C75.849 18.8274 76.4015 19.0389 76.8248 19.462C77.248 19.8851 77.4596 20.4375 77.4596 21.1191V29.7219C77.4596 30.4035 77.248 30.9559 76.8248 31.379C76.4015 31.802 75.849 32.0136 75.1672 32.0136H67.9021H60.9191ZM64.0579 27.3949H67.9021H71.7815C72.3458 27.3949 72.6279 27.1128 72.6279 26.5487V24.2923C72.6279 23.7282 72.3458 23.4461 71.7815 23.4461H64.0579C63.4936 23.4461 63.2115 23.7282 63.2115 24.2923V26.5487C63.2115 27.1128 63.4936 27.3949 64.0579 27.3949ZM54.0419 15.5837C53.1014 17.0175 51.9259 17.2878 50.5152 16.3947C50.2095 16.2066 49.8921 16.0303 49.5629 15.8658C49.3513 15.7483 49.0339 15.5602 48.6107 15.3017C48.4226 15.2077 48.2933 15.1372 48.2228 15.0901C46.765 14.291 46.5417 13.198 47.5527 11.8112C48.3521 10.683 49.3278 10.3892 50.4799 10.9298C51.0912 11.2119 52.0317 11.6702 53.3013 12.3048C54.0537 12.7279 54.4886 13.198 54.6062 13.7151C54.7238 14.2322 54.5357 14.8551 54.0419 15.5837ZM55.4879 5.95853C54.5004 7.32181 53.3131 7.5451 51.9259 6.62842C51.8318 6.5579 51.679 6.46388 51.4674 6.34636C51.2793 6.22884 51.1382 6.14657 51.0442 6.09956C50.9266 6.00554 50.7268 5.88801 50.4446 5.74699C50.186 5.58245 49.9861 5.46493 49.8451 5.39441C48.4109 4.54824 48.2228 3.44352 49.2808 2.08024C50.1272 0.999019 51.1147 0.728714 52.2433 1.26932C52.9251 1.6219 53.8068 2.09199 54.8883 2.67961C55.6642 3.1027 56.0874 3.58455 56.158 4.12516C56.252 4.64226 56.0287 5.25339 55.4879 5.95853Z" fill="black"/>
</g>
<path d="M351.757 25.5169C350.653 25.5169 350.102 24.9654 350.102 23.8623V19.1706V14.1842C350.102 13.2776 350.57 12.8243 351.507 12.8243C352.384 12.8243 352.868 13.2398 352.958 14.0709L353.049 15.0682H353.14C353.593 14.2522 354.145 13.6176 354.795 13.1643C355.429 12.7261 356.079 12.507 356.744 12.507C356.85 12.507 356.949 12.507 357.039 12.507C357.447 12.5976 357.727 12.8016 357.878 13.1189C358.014 13.4211 358.037 13.7913 357.946 14.2295C357.734 15.1815 357.213 15.5895 356.382 15.4535C356.367 15.4535 356.351 15.4535 356.336 15.4535C355.777 15.4535 355.256 15.6423 354.772 16.0201C354.198 16.4432 353.744 17.0854 353.412 17.9467V23.8623C353.412 24.9654 352.86 25.5169 351.757 25.5169Z" fill="#FFC800"/>
<path d="M342.438 25.8342C340.624 25.8342 339.135 25.2449 337.971 24.0663C336.747 22.8575 336.135 21.2331 336.135 19.1932C336.135 17.2138 336.739 15.5819 337.949 14.2975C339.097 13.1038 340.465 12.507 342.052 12.507C343.745 12.507 345.068 13.0812 346.02 14.2295C346.912 15.3175 347.357 16.7681 347.357 18.5813C347.357 18.8533 347.342 19.1706 347.312 19.5332C347.282 19.6843 347.191 19.8203 347.04 19.9412C346.889 20.047 346.715 20.0999 346.519 20.0999H343.276H339.377C339.513 21.1274 339.898 21.9131 340.533 22.4571C341.138 23.001 341.924 23.273 342.891 23.273C343.511 23.273 344.1 23.1597 344.659 22.933C345.385 22.5553 345.944 22.729 346.337 23.4543C346.685 24.1192 346.564 24.6254 345.974 24.9729C344.826 25.5471 343.647 25.8342 342.438 25.8342ZM339.332 17.9013H341.916H344.501C344.501 17.0098 344.304 16.3223 343.911 15.8388C343.503 15.3401 342.899 15.0908 342.097 15.0908C341.402 15.0908 340.805 15.325 340.306 15.7934C339.777 16.3072 339.452 17.0098 339.332 17.9013Z" fill="#FFC800"/>
<path d="M331.697 25.5168C330.594 25.5168 330.042 24.9653 330.042 23.8622V14.4788C330.042 13.3758 330.594 12.8242 331.697 12.8242C332.8 12.8242 333.352 13.3758 333.352 14.4788V19.1705V23.8622C333.352 24.9653 332.8 25.5168 331.697 25.5168ZM331.72 10.7844C331.145 10.7844 330.669 10.6181 330.291 10.2857C329.914 9.93818 329.725 9.49998 329.725 8.97113C329.725 8.42716 329.914 7.98896 330.291 7.65654C330.669 7.32411 331.145 7.1579 331.72 7.1579C332.294 7.1579 332.763 7.32411 333.125 7.65654C333.503 7.98896 333.692 8.42716 333.692 8.97113C333.692 9.48487 333.503 9.91551 333.125 10.263C332.763 10.6106 332.294 10.7844 331.72 10.7844Z" fill="black"/>
<path d="M317.196 25.5167C316.093 25.5167 315.541 24.9652 315.541 23.8622V16.4733V9.08438C315.541 7.98133 316.093 7.42981 317.196 7.42981C318.299 7.42981 318.851 7.98133 318.851 9.08438V11.9855L318.715 14.3654C320.045 13.1264 321.375 12.5068 322.705 12.5068C325.32 12.5068 326.628 14.2067 326.628 17.6065V23.8622C326.628 24.9652 326.076 25.5167 324.973 25.5167C323.854 25.5167 323.295 24.9652 323.295 23.8622V18.0145C323.295 17.0475 323.151 16.3675 322.864 15.9746C322.592 15.5667 322.139 15.3627 321.504 15.3627C321.02 15.3627 320.567 15.4836 320.143 15.7253C319.811 15.9218 319.38 16.2768 318.851 16.7906V23.8622C318.851 24.9652 318.299 25.5167 317.196 25.5167Z" fill="black"/>
<path d="M310.668 25.8342C307.887 25.8342 306.496 24.2476 306.496 21.0745V15.4535H305.929C305.113 15.4535 304.705 15.0304 304.705 14.1842C304.705 13.3834 305.091 12.9527 305.861 12.8923L306.655 12.8243L306.904 10.7164C306.995 9.85514 307.486 9.4245 308.378 9.4245C309.345 9.4245 309.829 9.88536 309.829 10.8071V12.8243H311.643C312.519 12.8243 312.958 13.2625 312.958 14.1389C312.958 15.0153 312.519 15.4535 311.643 15.4535H309.829V18.264V21.0745C309.829 22.4948 310.403 23.205 311.552 23.205C311.567 23.205 311.582 23.205 311.597 23.205C312.383 23.0237 312.875 23.3486 313.071 24.1796C313.237 24.9654 312.995 25.4489 312.346 25.6302C311.771 25.7662 311.212 25.8342 310.668 25.8342Z" fill="black"/>
<path d="M301.998 25.8341C299.912 25.8341 298.869 24.5421 298.869 21.9583V9.08438C298.869 7.98133 299.421 7.42981 300.524 7.42981C301.628 7.42981 302.179 7.98133 302.179 9.08438V14.7734V22.1169C302.179 22.7818 302.406 23.1142 302.859 23.1142C302.875 23.1142 302.89 23.1142 302.905 23.1142C303.026 23.0991 303.139 23.1671 303.245 23.3182C303.336 23.4542 303.396 23.5977 303.426 23.7488C303.502 24.187 303.502 24.595 303.426 24.9728C303.32 25.4412 303.116 25.7132 302.814 25.7887C302.482 25.819 302.209 25.8341 301.998 25.8341Z" fill="black"/>
<path d="M288.601 25.8342C287.483 25.8342 286.576 25.4791 285.881 24.7689C285.186 24.0587 284.838 23.1597 284.838 22.0717C284.838 20.7118 285.412 19.6617 286.561 18.9213C287.725 18.1658 289.584 17.652 292.138 17.38C292.078 15.9143 291.36 15.1815 289.984 15.1815C289.289 15.1815 288.526 15.3704 287.695 15.7481C286.893 16.1561 286.289 15.9899 285.881 15.2495C285.488 14.5393 285.631 13.9953 286.312 13.6176C287.747 12.8772 289.176 12.507 290.597 12.507C292.199 12.507 293.408 12.9829 294.224 13.9349C295.055 14.8717 295.471 16.2619 295.471 18.1053V21.8224V24.157C295.471 25.0636 294.987 25.5169 294.02 25.5169C293.174 25.5169 292.675 25.124 292.524 24.3383L292.501 24.157H292.433C291.133 25.2751 289.856 25.8342 288.601 25.8342ZM289.69 23.2277C290.491 23.2277 291.307 22.8121 292.138 21.9811V19.4199C290.702 19.6163 289.629 19.9185 288.919 20.3265C288.314 20.7194 288.012 21.2105 288.012 21.7998C288.012 22.7517 288.571 23.2277 289.69 23.2277Z" fill="black"/>
<path d="M278.119 25.8342C276.305 25.8342 274.817 25.2449 273.653 24.0663C272.429 22.8575 271.816 21.2331 271.816 19.1932C271.816 17.2138 272.421 15.5819 273.63 14.2975C274.779 13.1038 276.147 12.507 277.734 12.507C279.427 12.507 280.749 13.0812 281.701 14.2295C282.593 15.3175 283.039 16.7681 283.039 18.5813C283.039 18.8533 283.024 19.1706 282.994 19.5332C282.963 19.6843 282.873 19.8203 282.722 19.9412C282.57 20.047 282.397 20.0999 282.2 20.0999H278.958H275.059C275.195 21.1274 275.58 21.9131 276.215 22.4571C276.819 23.001 277.605 23.273 278.573 23.273C279.192 23.273 279.782 23.1597 280.341 22.933C281.067 22.5553 281.626 22.729 282.019 23.4543C282.366 24.1192 282.246 24.6254 281.656 24.9729C280.507 25.5471 279.328 25.8342 278.119 25.8342ZM275.013 17.9013H277.598H280.182C280.182 17.0098 279.986 16.3223 279.593 15.8388C279.185 15.3401 278.58 15.0908 277.779 15.0908C277.084 15.0908 276.487 15.325 275.988 15.7934C275.459 16.3072 275.134 17.0098 275.013 17.9013Z" fill="black"/>
<path d="M259.762 25.5167C258.659 25.5167 258.107 24.9652 258.107 23.8622V16.4733V9.08438C258.107 7.98133 258.659 7.42981 259.762 7.42981C260.866 7.42981 261.418 7.98133 261.418 9.08438V11.9855L261.282 14.3654C262.612 13.1264 263.942 12.5068 265.272 12.5068C267.887 12.5068 269.194 14.2067 269.194 17.6065V23.8622C269.194 24.9652 268.642 25.5167 267.539 25.5167C266.42 25.5167 265.861 24.9652 265.861 23.8622V18.0145C265.861 17.0475 265.718 16.3675 265.43 15.9746C265.158 15.5667 264.705 15.3627 264.07 15.3627C263.586 15.3627 263.133 15.4836 262.71 15.7253C262.377 15.9218 261.947 16.2768 261.418 16.7906V23.8622C261.418 24.9652 260.866 25.5167 259.762 25.5167Z" fill="black"/>
<path d="M244.085 25.8342C242.422 25.8342 241.009 25.2524 239.845 24.089C238.606 22.8348 237.986 21.2029 237.986 19.1932C237.986 17.1534 238.606 15.5064 239.845 14.2522C240.994 13.0887 242.407 12.507 244.085 12.507C245.748 12.507 247.161 13.0887 248.325 14.2522C249.564 15.5215 250.184 17.1685 250.184 19.1932C250.184 21.2029 249.564 22.8348 248.325 24.089C247.161 25.2524 245.748 25.8342 244.085 25.8342ZM244.085 23.1143C244.932 23.1143 245.597 22.7593 246.08 22.0491C246.549 21.354 246.783 20.4021 246.783 19.1932C246.783 17.9693 246.549 17.0098 246.08 16.3147C245.597 15.5895 244.932 15.2268 244.085 15.2268C243.224 15.2268 242.559 15.5895 242.09 16.3147C241.621 17.0098 241.387 17.9693 241.387 19.1932C241.387 20.4021 241.621 21.354 242.09 22.0491C242.574 22.7593 243.239 23.1143 244.085 23.1143Z" fill="black"/>
<path d="M230.01 25.8342C227.636 25.8342 225.724 25.0938 224.273 23.613C222.732 22.0566 221.961 19.9186 221.961 17.1987C221.961 14.5091 222.747 12.3559 224.319 10.7391C225.8 9.19785 227.697 8.42723 230.01 8.42723C231.657 8.42723 233.108 8.89565 234.363 9.83248C234.665 10.1045 234.816 10.384 234.816 10.6711C234.801 10.928 234.65 11.2302 234.363 11.5777C233.743 12.3332 233.063 12.4314 232.322 11.8724C231.672 11.4946 230.939 11.3057 230.123 11.3057C228.702 11.3057 227.561 11.8195 226.699 12.847C225.823 13.8896 225.384 15.3024 225.384 17.0854C225.384 18.9439 225.8 20.3719 226.631 21.3691C227.493 22.4117 228.732 22.933 230.35 22.933C231.256 22.933 231.959 22.7215 232.458 22.2984V18.9893H230.848C229.941 18.9893 229.488 18.5284 229.488 17.6067C229.488 16.7001 229.941 16.2468 230.848 16.2468H232.458H234.022C234.461 16.2468 234.808 16.3752 235.065 16.6321C235.322 16.889 235.451 17.2365 235.451 17.6747V23.0237C235.451 23.5375 235.277 23.953 234.929 24.2703C233.569 25.3129 231.929 25.8342 230.01 25.8342Z" fill="black"/>
<defs>
<filter id="filter0_d_1201_4954" x="173.096" y="1.52588e-05" width="32.8086" height="33.4238" filterUnits="userSpaceOnUse" color-interpolation-filters="sRGB">
<feFlood flood-opacity="0" result="BackgroundImageFix"/>
<feColorMatrix in="SourceAlpha" type="matrix" values="0 0 0 0 0 0 0 0 0 0 0 0 0 0 0 0 0 0 127 0" result="hardAlpha"/>
<feOffset/>
<feComposite in2="hardAlpha" operator="out"/>
<feColorMatrix type="matrix" values="0 0 0 0 0.86 0 0 0 0 1 0 0 0 0 0 0 0 0 1 0"/>
<feBlend mode="normal" in2="BackgroundImageFix" result="effect1_dropShadow_1201_4954"/>
<feBlend mode="normal" in="SourceGraphic" in2="effect1_dropShadow_1201_4954" result="shape"/>
</filter>
<filter id="filter1_d_1201_4954" x="130.508" y="0.397507" width="33.1113" height="32.2437" filterUnits="userSpaceOnUse" color-interpolation-filters="sRGB">
<feFlood flood-opacity="0" result="BackgroundImageFix"/>
<feColorMatrix in="SourceAlpha" type="matrix" values="0 0 0 0 0 0 0 0 0 0 0 0 0 0 0 0 0 0 127 0" result="hardAlpha"/>
<feOffset/>
<feComposite in2="hardAlpha" operator="out"/>
<feColorMatrix type="matrix" values="0 0 0 0 0.86 0 0 0 0 1 0 0 0 0 0 0 0 0 1 0"/>
<feBlend mode="normal" in2="BackgroundImageFix" result="effect1_dropShadow_1201_4954"/>
<feBlend mode="normal" in="SourceGraphic" in2="effect1_dropShadow_1201_4954" result="shape"/>
</filter>
<filter id="filter2_d_1201_4954" x="89.7324" y="0.0352173" width="29.5469" height="33.0712" filterUnits="userSpaceOnUse" color-interpolation-filters="sRGB">
<feFlood flood-opacity="0" result="BackgroundImageFix"/>
<feColorMatrix in="SourceAlpha" type="matrix" values="0 0 0 0 0 0 0 0 0 0 0 0 0 0 0 0 0 0 127 0" result="hardAlpha"/>
<feOffset/>
<feComposite in2="hardAlpha" operator="out"/>
<feColorMatrix type="matrix" values="0 0 0 0 0.86 0 0 0 0 1 0 0 0 0 0 0 0 0 1 0"/>
<feBlend mode="normal" in2="BackgroundImageFix" result="effect1_dropShadow_1201_4954"/>
<feBlend mode="normal" in="SourceGraphic" in2="effect1_dropShadow_1201_4954" result="shape"/>
</filter>
<filter id="filter3_d_1201_4954" x="46.9316" y="0.291916" width="31.9746" height="31.7217" filterUnits="userSpaceOnUse" color-interpolation-filters="sRGB">
<feFlood flood-opacity="0" result="BackgroundImageFix"/>
<feColorMatrix in="SourceAlpha" type="matrix" values="0 0 0 0 0 0 0 0 0 0 0 0 0 0 0 0 0 0 127 0" result="hardAlpha"/>
<feOffset/>
<feComposite in2="hardAlpha" operator="out"/>
<feColorMatrix type="matrix" values="0 0 0 0 0.86 0 0 0 0 1 0 0 0 0 0 0 0 0 1 0"/>
<feBlend mode="normal" in2="BackgroundImageFix" result="effect1_dropShadow_1201_4954"/>
<feBlend mode="normal" in="SourceGraphic" in2="effect1_dropShadow_1201_4954" result="shape"/>
</filter>
<linearGradient id="paint0_linear_1201_4954" x1="12.156" y1="21.3435" x2="23.3747" y2="13.3946" gradientUnits="userSpaceOnUse">
<stop/>
<stop offset="1" stop-color="#666666" stop-opacity="0"/>
</linearGradient>
</defs>
</svg>
