<svg width="124" height="123" viewBox="0 0 124 123" fill="none" xmlns="http://www.w3.org/2000/svg">
<path d="M46.9355 82.959H85.373C85.8828 82.959 86.3716 83.1615 86.732 83.5219C87.0924 83.8823 87.2949 84.3711 87.2949 84.8809C87.2949 85.3906 87.0924 85.8794 86.732 86.2398C86.3716 86.6003 85.8828 86.8027 85.373 86.8027H46.9355C46.4258 86.8027 45.937 86.6003 45.5766 86.2398C45.2162 85.8794 45.0137 85.3906 45.0137 84.8809C45.0137 84.3711 45.2162 83.8823 45.5766 83.5219C45.937 83.1615 46.4258 82.959 46.9355 82.959ZM37.3262 82.959C37.8359 82.959 38.3247 83.1615 38.6851 83.5219C39.0456 83.8823 39.248 84.3711 39.248 84.8809C39.248 85.3906 39.0456 85.8794 38.6851 86.2398C38.3247 86.6003 37.8359 86.8027 37.3262 86.8027C36.8165 86.8027 36.3276 86.6003 35.9672 86.2398C35.6068 85.8794 35.4043 85.3906 35.4043 84.8809C35.4043 84.3711 35.6068 83.8823 35.9672 83.5219C36.3276 83.1615 36.8165 82.959 37.3262 82.959ZM46.9355 63.7402H85.373C85.8828 63.7402 86.3716 63.9427 86.732 64.3031C87.0924 64.6636 87.2949 65.1524 87.2949 65.6621C87.2949 66.1718 87.0924 66.6607 86.732 67.0211C86.3716 67.3815 85.8828 67.584 85.373 67.584H46.9355C46.4258 67.584 45.937 67.3815 45.5766 67.0211C45.2162 66.6607 45.0137 66.1718 45.0137 65.6621C45.0137 65.1524 45.2162 64.6636 45.5766 64.3031C45.937 63.9427 46.4258 63.7402 46.9355 63.7402ZM37.3262 63.7402C37.8359 63.7402 38.3247 63.9427 38.6851 64.3031C39.0456 64.6636 39.248 65.1524 39.248 65.6621C39.248 66.1718 39.0456 66.6607 38.6851 67.0211C38.3247 67.3815 37.8359 67.584 37.3262 67.584C36.8165 67.584 36.3276 67.3815 35.9672 67.0211C35.6068 66.6607 35.4043 66.1718 35.4043 65.6621C35.4043 65.1524 35.6068 64.6636 35.9672 64.3031C36.3276 63.9427 36.8165 63.7402 37.3262 63.7402ZM46.9355 44.5215H85.373C85.8828 44.5215 86.3716 44.724 86.732 45.0844C87.0924 45.4448 87.2949 45.9336 87.2949 46.4434C87.2949 46.9531 87.0924 47.4419 86.732 47.8023C86.3716 48.1627 85.8828 48.3652 85.373 48.3652H46.9355C46.4258 48.3652 45.937 48.1627 45.5766 47.8023C45.2162 47.4419 45.0137 46.9531 45.0137 46.4434C45.0137 45.9336 45.2162 45.4448 45.5766 45.0844C45.937 44.724 46.4258 44.5215 46.9355 44.5215ZM37.3262 44.5215C37.8359 44.5215 38.3247 44.724 38.6851 45.0844C39.0456 45.4448 39.248 45.9336 39.248 46.4434C39.248 46.9531 39.0456 47.4419 38.6851 47.8023C38.3247 48.1627 37.8359 48.3652 37.3262 48.3652C36.8165 48.3652 36.3276 48.1627 35.9672 47.8023C35.6068 47.4419 35.4043 46.9531 35.4043 46.4434C35.4043 45.9336 35.6068 45.4448 35.9672 45.0844C36.3276 44.724 36.8165 44.5215 37.3262 44.5215Z" fill="#6C6C6C"/>
<path d="M68.7676 29.1465H53.3926C49.6834 29.1465 46.666 26.1291 46.666 22.4199V16.6543C46.666 12.9451 49.6834 9.92773 53.3926 9.92773H68.7676C72.4768 9.92773 75.4941 12.9451 75.4941 16.6543V22.4199C75.4941 26.1272 72.4749 29.1465 68.7676 29.1465ZM53.3926 13.7715C51.8032 13.7715 50.5098 15.0649 50.5098 16.6543V22.4199C50.5098 24.0093 51.8032 25.3027 53.3926 25.3027H68.7676C70.357 25.3027 71.6504 24.0093 71.6504 22.4199V16.6543C71.6504 15.0649 70.357 13.7715 68.7676 13.7715H53.3926Z" fill="#FFC800"/>
<path d="M85.3613 109.941H37.3375C27.7877 109.941 20.0176 102.457 20.0176 93.259V34.219C20.0176 25.0209 27.7858 17.5371 37.3375 17.5371H41.0794C41.5891 17.5371 42.078 17.7396 42.4384 18.1C42.7988 18.4604 43.0013 18.9493 43.0013 19.459C43.0013 19.9687 42.7988 20.4575 42.4384 20.818C42.078 21.1784 41.5891 21.3809 41.0794 21.3809H37.3375C29.9075 21.3809 23.8613 27.1407 23.8613 34.219V93.259C23.8613 100.339 29.9075 106.097 37.3375 106.097H85.3613C92.7913 106.097 98.8375 100.339 98.8375 93.259V34.219C98.8375 27.1407 92.7913 21.3809 85.3613 21.3809H81.5887C81.079 21.3809 80.5901 21.1784 80.2297 20.818C79.8693 20.4575 79.6668 19.9687 79.6668 19.459C79.6668 18.9493 79.8693 18.4604 80.2297 18.1C80.5901 17.7396 81.079 17.5371 81.5887 17.5371H85.3613C94.9111 17.5371 102.681 25.0209 102.681 34.219V93.259C102.681 102.459 94.9111 109.941 85.3613 109.941Z" fill="#1A394A"/>
</svg>
