<svg width="1200" height="170" viewBox="0 0 1200 170" fill="none" xmlns="http://www.w3.org/2000/svg">
<rect width="696" height="96" transform="translate(252)" fill="white"/>
<circle cx="322" cy="48" r="30" fill="#1A394A"/>
<circle cx="322" cy="48" r="25" fill="#FFC800"/>
<path d="M325.56 60H319.256C319.277 59.4027 319.299 58.56 319.32 57.472C319.341 56.384 319.352 55.1467 319.352 53.76C319.373 52.352 319.384 50.88 319.384 49.344C319.405 47.808 319.416 46.2827 319.416 44.768C319.437 43.2533 319.448 41.8453 319.448 40.544L315.64 40.416L315.32 38.528C317.411 37.9093 319.267 37.3333 320.888 36.8C322.509 36.2667 323.992 35.7333 325.336 35.2C325.357 35.8613 325.379 36.768 325.4 37.92C325.421 39.072 325.432 40.384 325.432 41.856C325.453 43.3067 325.475 44.8533 325.496 46.496C325.517 48.1173 325.528 49.7493 325.528 51.392C325.549 53.0133 325.56 54.5707 325.56 56.064C325.56 57.536 325.56 58.848 325.56 60Z" fill="black"/>
<line x1="421" y1="47.5" x2="501" y2="47.5" stroke="black" stroke-dasharray="2 2"/>
<circle cx="600" cy="48" r="30" fill="#1A394A"/>
<circle cx="600" cy="48" r="25" fill="white"/>
<path d="M608.4 60.32L591.312 59.712L590.896 57.12C592.539 55.8613 594.053 54.528 595.44 53.12C596.827 51.712 598.032 50.304 599.056 48.896C600.101 47.488 600.901 46.1547 601.456 44.896C602.032 43.616 602.32 42.4853 602.32 41.504C602.32 40.5013 602.043 39.68 601.488 39.04C600.955 38.4 600.272 38.08 599.44 38.08C598.501 38.08 597.52 38.5173 596.496 39.392C595.472 40.2453 594.469 41.4933 593.488 43.136L590.32 39.648C591.323 38.368 592.635 37.3653 594.256 36.64C595.877 35.8933 597.595 35.52 599.408 35.52C601.115 35.52 602.629 35.84 603.952 36.48C605.275 37.0987 606.32 37.9627 607.088 39.072C607.856 40.1813 608.24 41.44 608.24 42.848C608.24 44.832 607.376 46.9653 605.648 49.248C603.941 51.5307 601.243 54.1333 597.552 57.056L608.56 56.32L608.4 60.32Z" fill="black"/>
<line x1="699" y1="47.5" x2="779" y2="47.5" stroke="black" stroke-dasharray="2 2"/>
<circle cx="878" cy="48" r="30" fill="#1A394A"/>
<circle cx="878" cy="48" r="25" fill="white"/>
<path d="M878.144 60.16C876.203 60.16 874.389 59.7973 872.704 59.072C871.04 58.3253 869.579 57.2587 868.32 55.872C868.597 55.488 868.928 55.04 869.312 54.528C869.717 53.9947 870.144 53.472 870.592 52.96C871.04 52.4267 871.445 51.9573 871.808 51.552C873.472 53.5787 874.955 55.072 876.256 56.032C877.557 56.9707 878.763 57.44 879.872 57.44C880.832 57.44 881.621 57.1307 882.24 56.512C882.859 55.8933 883.168 55.104 883.168 54.144C883.168 52.6933 882.4 51.52 880.864 50.624C879.349 49.728 877.227 49.2053 874.496 49.056L875.84 44.32C879.787 44.32 881.76 43.3707 881.76 41.472C881.76 40.8533 881.579 40.288 881.216 39.776C880.875 39.2427 880.416 38.816 879.84 38.496C879.285 38.1547 878.677 37.984 878.016 37.984C877.099 37.984 876.203 38.3573 875.328 39.104C874.453 39.8293 873.483 41.0453 872.416 42.752L869.12 39.36C869.931 38.5707 870.88 37.8987 871.968 37.344C873.077 36.768 874.261 36.32 875.52 36C876.779 35.68 878.037 35.52 879.296 35.52C880.789 35.52 882.112 35.744 883.264 36.192C884.437 36.6187 885.355 37.216 886.016 37.984C886.699 38.7307 887.04 39.5947 887.04 40.576C887.04 41.408 886.795 42.1973 886.304 42.944C885.835 43.6907 885.195 44.3307 884.384 44.864C883.573 45.376 882.645 45.728 881.6 45.92C882.773 46.176 883.829 46.6667 884.768 47.392C885.707 48.096 886.453 48.9493 887.008 49.952C887.563 50.9333 887.84 51.968 887.84 53.056C887.84 54.4 887.413 55.616 886.56 56.704C885.728 57.7707 884.576 58.6133 883.104 59.232C881.653 59.8507 880 60.16 878.144 60.16Z" fill="black"/>
<path d="M236.432 126.776C235.888 126.776 235.616 126.504 235.616 125.96V116.384C235.616 115.968 235.744 115.632 236 115.376C236.256 115.12 236.592 114.992 237.008 114.992H240.488H243.968C244.384 114.992 244.72 115.12 244.976 115.376C245.232 115.632 245.36 115.968 245.36 116.384V124.952C245.36 125.4 245.304 125.736 245.192 125.96C245.08 126.2 244.864 126.384 244.544 126.512C244.24 126.64 243.544 126.72 242.456 126.752C241.8 126.752 241.408 126.552 241.28 126.152C241.088 125.56 241.432 125.28 242.312 125.312C242.664 125.312 243.008 125.312 243.344 125.312C243.488 125.296 243.584 125.264 243.632 125.216C243.68 125.168 243.704 125.072 243.704 124.928V122.336H237.248V125.96C237.248 126.504 236.976 126.776 236.432 126.776ZM227.576 125.456C227.16 125.456 226.824 125.328 226.568 125.072C226.312 124.816 226.184 124.48 226.184 124.064V119.912C226.184 119.496 226.312 119.16 226.568 118.904C226.824 118.648 227.16 118.52 227.576 118.52H229.64H231.728C232.144 118.52 232.48 118.648 232.736 118.904C232.992 119.16 233.12 119.496 233.12 119.912V124.064C233.12 124.48 232.992 124.816 232.736 125.072C232.48 125.328 232.144 125.456 231.728 125.456H227.576ZM228.224 124.016H229.664H231.104C231.44 124.016 231.608 123.848 231.608 123.512V120.488C231.608 120.152 231.44 119.984 231.104 119.984H228.224C227.888 119.984 227.72 120.152 227.72 120.488V123.512C227.72 123.848 227.888 124.016 228.224 124.016ZM237.248 121.064H243.704V119.336H240.464H237.248V121.064ZM237.248 118.064H240.464H243.704V116.864C243.704 116.528 243.536 116.36 243.2 116.36H237.752C237.416 116.36 237.248 116.528 237.248 116.864V118.064ZM226.928 116.744C226.448 116.744 226.208 116.504 226.208 116.024C226.208 115.544 226.448 115.304 226.928 115.304H232.376C232.856 115.304 233.096 115.544 233.096 116.024C233.096 116.504 232.856 116.744 232.376 116.744H229.64H226.928ZM234.512 113.6C234.064 113.6 233.84 113.368 233.84 112.904C233.84 112.456 234.064 112.232 234.512 112.232H239.456V110.648H235.688C235.256 110.648 235.04 110.424 235.04 109.976C235.04 109.544 235.256 109.328 235.688 109.328H239.456V107.888H235.112C234.664 107.888 234.44 107.664 234.44 107.216C234.44 106.768 234.664 106.544 235.112 106.544H239.456V105.752C239.456 105.192 239.736 104.912 240.296 104.912C240.856 104.912 241.136 105.192 241.136 105.752V106.544H245.624C246.072 106.544 246.296 106.768 246.296 107.216C246.296 107.664 246.072 107.888 245.624 107.888H241.136V109.328H245.288C245.72 109.328 245.936 109.544 245.936 109.976C245.936 110.424 245.72 110.648 245.288 110.648H241.136V112.232H246.128C246.576 112.232 246.8 112.456 246.8 112.904C246.8 113.368 246.576 113.6 246.128 113.6H240.32H234.512ZM226.904 113.552C226.44 113.552 226.208 113.312 226.208 112.832C226.208 112.368 226.44 112.136 226.904 112.136H229.64H232.4C232.864 112.136 233.096 112.368 233.096 112.832C233.096 113.312 232.864 113.552 232.4 113.552H226.904ZM225.848 110.36C225.368 110.36 225.128 110.112 225.128 109.616C225.128 109.136 225.368 108.896 225.848 108.896H229.52H233.192C233.672 108.896 233.912 109.136 233.912 109.616C233.912 110.112 233.672 110.36 233.192 110.36H225.848ZM227.024 107.192C226.544 107.192 226.304 106.952 226.304 106.472C226.304 105.992 226.544 105.752 227.024 105.752H229.664H232.328C232.808 105.752 233.048 105.992 233.048 106.472C233.048 106.952 232.808 107.192 232.328 107.192H227.024ZM258.632 126.848C258.104 126.848 257.84 126.592 257.84 126.08V122.672H254.744C254.216 122.672 253.952 122.408 253.952 121.88C253.952 121.352 254.216 121.088 254.744 121.088H255.896H257.84V119.168H255.968C255.552 119.168 255.216 119.04 254.96 118.784C254.704 118.528 254.576 118.192 254.576 117.776V112.256C254.576 111.84 254.704 111.504 254.96 111.248C255.216 110.992 255.552 110.864 255.968 110.864H257.84V109.04H254.984C254.472 109.04 254.216 108.784 254.216 108.272C254.216 107.76 254.472 107.504 254.984 107.504H257.84V105.68C257.84 105.168 258.104 104.912 258.632 104.912C259.144 104.912 259.4 105.168 259.4 105.68V107.504H262.448C262.96 107.504 263.216 107.76 263.216 108.272C263.216 108.784 262.96 109.04 262.448 109.04H259.4V110.864H261.32C261.736 110.864 262.072 110.992 262.328 111.248C262.584 111.504 262.712 111.84 262.712 112.256V117.776C262.712 118.192 262.584 118.528 262.328 118.784C262.072 119.04 261.736 119.168 261.32 119.168H259.4V121.088H262.352C262.88 121.088 263.144 121.352 263.144 121.88C263.144 122.408 262.88 122.672 262.352 122.672H259.4V126.08C259.4 126.592 259.144 126.848 258.632 126.848ZM267.536 126.8C267.008 126.8 266.688 126.616 266.576 126.248C266.448 125.768 266.656 125.528 267.2 125.528H267.584C267.728 125.528 267.8 125.448 267.8 125.288V122.12H265.112V126.104C265.112 126.536 264.896 126.752 264.464 126.752C264.016 126.752 263.792 126.536 263.792 126.104V115.712C263.792 115.296 263.92 114.96 264.176 114.704C264.432 114.448 264.768 114.32 265.184 114.32H266.432H267.848C268.232 114.32 268.536 114.432 268.76 114.656C268.984 114.88 269.096 115.184 269.096 115.568V125.312C269.096 125.936 268.928 126.352 268.592 126.56C268.384 126.688 268.032 126.768 267.536 126.8ZM272.432 126.752C271.856 126.752 271.512 126.576 271.4 126.224C271.304 125.952 271.36 125.744 271.568 125.6C271.744 125.472 271.992 125.416 272.312 125.432C272.84 125.432 273.152 125.424 273.248 125.408C273.488 125.392 273.608 125.28 273.608 125.072V114.656C273.608 114.176 273.856 113.936 274.352 113.936C274.832 113.936 275.072 114.176 275.072 114.656V119.528V125.096C275.072 125.832 274.84 126.312 274.376 126.536C273.992 126.648 273.344 126.72 272.432 126.752ZM271.088 123.224C270.656 123.224 270.44 123.008 270.44 122.576V119.024V115.472C270.44 115.04 270.656 114.824 271.088 114.824C271.52 114.824 271.736 115.04 271.736 115.472V122.576C271.736 123.008 271.52 123.224 271.088 123.224ZM265.112 120.776H267.8V118.784H266.456H265.112V120.776ZM256.424 117.824H258.032V116.744V115.64H255.92V117.32C255.92 117.656 256.088 117.824 256.424 117.824ZM259.208 117.824H260.84C261.176 117.824 261.344 117.656 261.344 117.32V115.64H259.208V116.744V117.824ZM265.112 117.512H266.456H267.8V116.168C267.8 115.832 267.632 115.664 267.296 115.664H265.616C265.28 115.664 265.112 115.832 265.112 116.168V117.512ZM255.92 114.368H258.032V113.288V112.208H256.424C256.088 112.208 255.92 112.376 255.92 112.712V114.368ZM259.208 114.368H261.344V112.712C261.344 112.376 261.176 112.208 260.84 112.208H259.208V113.288V114.368ZM264.416 112.208C263.872 112.592 263.456 112.528 263.168 112.016C262.88 111.536 262.992 111.136 263.504 110.816C264.432 110.16 265.32 109.36 266.168 108.416C266.968 107.504 267.64 106.576 268.184 105.632C268.408 105.216 268.784 105.008 269.312 105.008H269.384C269.88 105.008 270.248 105.2 270.488 105.584C271.144 106.56 271.928 107.52 272.84 108.464C273.608 109.232 274.448 109.928 275.36 110.552C275.888 110.872 275.992 111.296 275.672 111.824C275.384 112.32 274.984 112.4 274.472 112.064C273.512 111.36 272.576 110.528 271.664 109.568C270.752 108.592 269.992 107.624 269.384 106.664C268.856 107.624 268.16 108.592 267.296 109.568C266.4 110.576 265.44 111.456 264.416 112.208ZM266.816 112.472C266.336 112.472 266.096 112.232 266.096 111.752C266.096 111.272 266.336 111.032 266.816 111.032H269.36H271.928C272.408 111.032 272.648 111.272 272.648 111.752C272.648 112.232 272.408 112.472 271.928 112.472H266.816ZM285.032 126.296C284.504 126.6 284.04 126.576 283.64 126.224C283 125.648 283.088 125.128 283.904 124.664C287.872 122.12 290.584 117.96 292.04 112.184C292.216 111.432 292.624 111.112 293.264 111.224H293.336C293.176 110.216 293.072 109.192 293.024 108.152H288.08C287.488 108.152 287.192 107.856 287.192 107.264C287.192 106.672 287.488 106.376 288.08 106.376H290.96H293.36C293.744 106.376 294.08 106.48 294.368 106.688C294.624 106.88 294.752 107.08 294.752 107.288C294.928 114.728 297.68 120.368 303.008 124.208C303.424 124.496 303.72 124.792 303.896 125.096C304.104 125.48 304.072 125.816 303.8 126.104C303.384 126.536 302.832 126.528 302.144 126.08C297.808 123.088 295.008 118.856 293.744 113.384C292.912 116.344 291.792 118.88 290.384 120.992C288.944 123.12 287.16 124.888 285.032 126.296ZM324.8 126.608C323.456 126.608 322.552 126.448 322.088 126.128C321.624 125.808 321.392 125.176 321.392 124.232V123.464H315.824C315.408 123.464 315.072 123.336 314.816 123.08C314.56 122.824 314.432 122.488 314.432 122.072V117.776C314.432 117.36 314.56 117.024 314.816 116.768C315.072 116.512 315.408 116.384 315.824 116.384H322.448H329.072C329.488 116.384 329.824 116.512 330.08 116.768C330.336 117.024 330.464 117.36 330.464 117.776V122.072C330.464 122.488 330.336 122.824 330.08 123.08C329.824 123.336 329.488 123.464 329.072 123.464H323.096V124.232C323.096 124.648 323.208 124.912 323.432 125.024C323.656 125.152 324.136 125.216 324.872 125.216H330.152C330.584 125.216 330.904 125.152 331.112 125.024C331.32 124.864 331.472 124.584 331.568 124.184C331.616 123.752 331.728 123.392 331.904 123.104C332.112 122.752 332.368 122.632 332.672 122.744C333.072 122.904 333.232 123.392 333.152 124.208C332.992 125.152 332.704 125.784 332.288 126.104C331.888 126.44 331.216 126.608 330.272 126.608H324.8ZM316.64 122.168H321.392V120.536H318.752H316.136V121.664C316.136 122 316.304 122.168 316.64 122.168ZM323.096 122.168H328.232C328.568 122.168 328.736 122 328.736 121.664V120.536H325.904H323.096V122.168ZM316.136 119.336H318.752H321.392V117.68H316.64C316.304 117.68 316.136 117.848 316.136 118.184V119.336ZM323.096 119.336H325.904H328.736V118.184C328.736 117.848 328.568 117.68 328.232 117.68H323.096V119.336ZM322.328 115.568C321.752 115.568 321.464 115.28 321.464 114.704V110.096H314.528C314.192 110.096 314.024 110.264 314.024 110.6V112.664C314.024 113.192 313.76 113.456 313.232 113.456C312.688 113.456 312.416 113.192 312.416 112.664V110.192C312.416 109.776 312.544 109.44 312.8 109.184C313.056 108.928 313.392 108.8 313.808 108.8H321.464V107.336H314.48C314.016 107.336 313.784 107.104 313.784 106.64C313.784 106.176 314.016 105.944 314.48 105.944H322.4H330.32C330.784 105.944 331.016 106.176 331.016 106.64C331.016 107.104 330.784 107.336 330.32 107.336H323.192V108.8H331.016C331.432 108.8 331.768 108.928 332.024 109.184C332.28 109.44 332.408 109.776 332.408 110.192V112.64C332.408 113.184 332.136 113.456 331.592 113.456C331.032 113.456 330.752 113.184 330.752 112.64V110.6C330.752 110.264 330.584 110.096 330.248 110.096H323.192V114.704C323.192 115.28 322.904 115.568 322.328 115.568ZM315.344 114.944C314.976 114.944 314.792 114.752 314.792 114.368C314.792 114 314.976 113.816 315.344 113.816H319.712C320.08 113.816 320.264 114 320.264 114.368C320.264 114.752 320.08 114.944 319.712 114.944H317.528H315.344ZM324.992 114.944C324.624 114.944 324.44 114.752 324.44 114.368C324.44 114 324.624 113.816 324.992 113.816H329.552C329.92 113.816 330.104 114 330.104 114.368C330.104 114.752 329.92 114.944 329.552 114.944H327.272H324.992ZM315.8 112.496C315.432 112.496 315.248 112.312 315.248 111.944C315.248 111.576 315.432 111.392 315.8 111.392H317.744H319.712C320.08 111.392 320.264 111.576 320.264 111.944C320.264 112.312 320.08 112.496 319.712 112.496H315.8ZM324.992 112.496C324.624 112.496 324.44 112.312 324.44 111.944C324.44 111.576 324.624 111.392 324.992 111.392H328.976C329.344 111.392 329.528 111.576 329.528 111.944C329.528 112.312 329.344 112.496 328.976 112.496H326.984H324.992ZM347.36 126.872C346.656 126.872 346.2 126.648 345.992 126.2C345.832 125.816 345.888 125.528 346.16 125.336C346.4 125.16 346.776 125.08 347.288 125.096C348.52 125.128 349.32 125.128 349.688 125.096C349.944 125.08 350.112 125.032 350.192 124.952C350.288 124.872 350.336 124.728 350.336 124.52V117.344H341.408C340.816 117.344 340.52 117.048 340.52 116.456C340.52 115.864 340.816 115.568 341.408 115.568H350.336V112.784C350.336 112.464 350.432 112.208 350.624 112.016C350.816 111.824 351.072 111.728 351.392 111.728H351.464C353.24 110.736 354.872 109.6 356.36 108.32H343.832C343.256 108.32 342.968 108.032 342.968 107.456C342.968 106.88 343.256 106.592 343.832 106.592H350.576H358.04C358.6 106.592 358.944 106.736 359.072 107.024C359.2 107.296 359.08 107.672 358.712 108.152C357.016 110.056 354.832 111.744 352.16 113.216V115.568H361.04C361.632 115.568 361.928 115.864 361.928 116.456C361.928 117.048 361.632 117.344 361.04 117.344H352.16V124.52C352.16 125.128 352.072 125.584 351.896 125.888C351.72 126.192 351.408 126.416 350.96 126.56C350.32 126.768 349.12 126.872 347.36 126.872ZM373.136 126.752C372.576 126.752 372.296 126.472 372.296 125.912V113C371.592 113.976 370.976 114.752 370.448 115.328C370.176 115.632 369.936 115.776 369.728 115.76C369.52 115.728 369.312 115.536 369.104 115.184C368.944 114.912 368.872 114.68 368.888 114.488C368.92 114.28 369.048 114.064 369.272 113.84C371.368 111.68 373.088 108.992 374.432 105.776C374.64 105.232 375.008 105.048 375.536 105.224C376.096 105.384 376.272 105.752 376.064 106.328C375.344 107.912 374.648 109.28 373.976 110.432V118.592V125.912C373.976 126.472 373.696 126.752 373.136 126.752ZM378.608 125.696C378.192 125.696 377.856 125.568 377.6 125.312C377.344 125.056 377.216 124.72 377.216 124.304V120.656C377.216 120.24 377.344 119.904 377.6 119.648C377.856 119.392 378.192 119.264 378.608 119.264H383.24H387.896C388.312 119.264 388.648 119.392 388.904 119.648C389.16 119.904 389.288 120.24 389.288 120.656V124.304C389.288 124.72 389.16 125.056 388.904 125.312C388.648 125.568 388.312 125.696 387.896 125.696H378.608ZM379.424 124.232H383.216H387.032C387.368 124.232 387.536 124.064 387.536 123.728V121.208C387.536 120.872 387.368 120.704 387.032 120.704H379.424C379.088 120.704 378.92 120.872 378.92 121.208V123.728C378.92 124.064 379.088 124.232 379.424 124.232ZM378.2 117.416C377.72 117.416 377.48 117.176 377.48 116.696C377.48 116.216 377.72 115.976 378.2 115.976H388.304C388.784 115.976 389.024 116.216 389.024 116.696C389.024 117.176 388.784 117.416 388.304 117.416H383.24H378.2ZM378.2 114.128C377.72 114.128 377.48 113.88 377.48 113.384C377.48 112.904 377.72 112.664 378.2 112.664H383.264H388.352C388.832 112.664 389.072 112.904 389.072 113.384C389.072 113.88 388.832 114.128 388.352 114.128H378.2ZM376.28 110.84C375.784 110.84 375.536 110.592 375.536 110.096C375.536 109.6 375.784 109.352 376.28 109.352H390.128C390.624 109.352 390.872 109.6 390.872 110.096C390.872 110.592 390.624 110.84 390.128 110.84H383.192H376.28ZM378.488 107.528C378.008 107.528 377.768 107.28 377.768 106.784C377.768 106.304 378.008 106.064 378.488 106.064H383.192H387.92C388.4 106.064 388.64 106.304 388.64 106.784C388.64 107.28 388.4 107.528 387.92 107.528H378.488ZM403.4 126.848C402.84 126.848 402.56 126.568 402.56 126.008V118.856C401.648 120.632 400.632 122.208 399.512 123.584C399.288 123.84 399.088 123.968 398.912 123.968C398.736 123.952 398.536 123.808 398.312 123.536C398.12 123.312 398.024 123.112 398.024 122.936C398.024 122.76 398.128 122.568 398.336 122.36C399.04 121.592 399.744 120.632 400.448 119.48C401.136 118.36 401.72 117.224 402.2 116.072H399.224C398.68 116.072 398.408 115.792 398.408 115.232C398.408 114.688 398.68 114.416 399.224 114.416H402.56V112.784C402.56 112.464 402.656 112.208 402.848 112.016C403.056 111.808 403.32 111.704 403.64 111.704H403.712C403.456 110.808 403.064 109.832 402.536 108.776H401.552C400.992 109.832 400.416 110.76 399.824 111.56C399.648 111.784 399.472 111.912 399.296 111.944C399.12 111.96 398.912 111.888 398.672 111.728C398.144 111.376 398.08 110.968 398.48 110.504C399.552 109.128 400.416 107.504 401.072 105.632C401.264 105.088 401.632 104.888 402.176 105.032C402.768 105.176 402.968 105.528 402.776 106.088C402.68 106.344 402.52 106.728 402.296 107.24H405.392H407.744C408.256 107.24 408.512 107.496 408.512 108.008C408.512 108.52 408.256 108.776 407.744 108.776H404.312C404.664 109.512 404.904 110.056 405.032 110.408C405.112 110.696 405.088 110.968 404.96 111.224C404.832 111.48 404.616 111.672 404.312 111.8L404.24 111.824V114.416H407.168C407.712 114.416 407.984 114.688 407.984 115.232C407.984 115.792 407.712 116.072 407.168 116.072H404.24V116.96C405.248 117.824 406.384 118.888 407.648 120.152C407.824 120.328 407.896 120.488 407.864 120.632C407.848 120.728 407.736 120.904 407.528 121.16C407.304 121.448 407.12 121.6 406.976 121.616C406.8 121.664 406.608 121.56 406.4 121.304C405.584 120.312 404.864 119.48 404.24 118.808V126.008C404.24 126.568 403.96 126.848 403.4 126.848ZM410.12 125.792C409.704 125.792 409.368 125.664 409.112 125.408C408.856 125.152 408.728 124.816 408.728 124.4V113.96C408.728 113.544 408.856 113.208 409.112 112.952C409.368 112.696 409.704 112.568 410.12 112.568H413.624H417.128C417.544 112.568 417.88 112.696 418.136 112.952C418.392 113.208 418.52 113.544 418.52 113.96V124.4C418.52 124.816 418.392 125.152 418.136 125.408C417.88 125.664 417.544 125.792 417.128 125.792H410.12ZM410.936 124.28H416.264C416.6 124.28 416.768 124.112 416.768 123.776V121.784H413.6H410.432V123.776C410.432 124.112 410.6 124.28 410.936 124.28ZM410.432 120.392H416.768V117.944H413.6H410.432V120.392ZM410.432 116.552H413.6H416.768V114.68C416.768 114.344 416.6 114.176 416.264 114.176H410.936C410.6 114.176 410.432 114.344 410.432 114.68V116.552ZM409.184 111.392C408.832 111.792 408.432 111.84 407.984 111.536C407.44 111.152 407.392 110.72 407.84 110.24C408.88 108.992 409.728 107.464 410.384 105.656C410.56 105.096 410.92 104.888 411.464 105.032C412.056 105.176 412.256 105.536 412.064 106.112C411.936 106.528 411.792 106.904 411.632 107.24H415.472H418.568C419.08 107.24 419.336 107.496 419.336 108.008C419.336 108.52 419.08 108.776 418.568 108.776H414.176C414.624 109.4 415.032 110.048 415.4 110.72C415.512 110.96 415.528 111.152 415.448 111.296C415.384 111.424 415.216 111.544 414.944 111.656C414.688 111.768 414.488 111.808 414.344 111.776C414.168 111.728 414.024 111.584 413.912 111.344C413.544 110.592 413.008 109.736 412.304 108.776H410.912C410.368 109.8 409.792 110.672 409.184 111.392Z" fill="black"/>
<path d="M828.352 126.632C828.16 126.632 827.96 126.528 827.752 126.32C827.48 126.064 827.352 125.832 827.368 125.624C827.4 125.416 827.568 125.192 827.872 124.952C828.784 124.152 829.576 123.144 830.248 121.928C829.496 120.904 828.84 119.6 828.28 118.016C828.12 117.504 828.256 117.168 828.688 117.008C829.152 116.816 829.48 117 829.672 117.56C830.04 118.632 830.48 119.544 830.992 120.296C831.584 118.888 832.008 117.248 832.264 115.376C832.312 115.008 832.168 114.824 831.832 114.824H829.6L829.456 115.112C829.248 115.544 828.904 115.696 828.424 115.568C827.8 115.392 827.632 115.032 827.92 114.488C829.008 112.376 830.04 110.224 831.016 108.032H827.992C827.464 108.032 827.2 107.768 827.2 107.24C827.2 106.712 827.464 106.448 827.992 106.448H831.736C832.232 106.448 832.576 106.584 832.768 106.856C832.976 107.112 832.992 107.456 832.816 107.888C832.32 109.12 831.504 110.904 830.368 113.24H832.72C833.168 113.24 833.504 113.392 833.728 113.696C833.952 113.984 834.032 114.408 833.968 114.968C833.6 117.592 833.016 119.856 832.216 121.76C833.288 122.8 834.664 123.528 836.344 123.944C837.736 124.296 839.52 124.472 841.696 124.472C844.64 124.472 846.752 124.464 848.032 124.448C848.448 124.448 848.688 124.528 848.752 124.688C848.8 124.832 848.736 125.112 848.56 125.528C848.384 125.976 848.032 126.2 847.504 126.2H844.96H841.648C839.296 126.2 837.368 126.008 835.864 125.624C834.104 125.176 832.632 124.4 831.448 123.296C830.728 124.544 829.912 125.56 829 126.344C828.76 126.536 828.544 126.632 828.352 126.632ZM841 123.656C840.424 123.656 840.136 123.376 840.136 122.816V121.112H834.64C834.16 121.112 833.92 120.864 833.92 120.368C833.92 119.888 834.16 119.648 834.64 119.648H840.136V117.752H835.672C835.224 117.752 835 117.52 835 117.056C835 116.608 835.224 116.384 835.672 116.384H840.136V114.608H835.84C835.36 114.608 835.12 114.368 835.12 113.888C835.12 113.408 835.36 113.168 835.84 113.168H840.136V111.392H834.304C833.84 111.392 833.608 111.152 833.608 110.672C833.608 110.208 833.84 109.976 834.304 109.976H836.872H840.136V108.248H835.984C835.52 108.248 835.288 108.008 835.288 107.528C835.288 107.064 835.52 106.832 835.984 106.832H840.136V105.944C840.136 105.384 840.424 105.104 841 105.104C841.56 105.104 841.84 105.384 841.84 105.944V106.832H845.68C846.096 106.832 846.432 106.96 846.688 107.216C846.944 107.472 847.072 107.808 847.072 108.224V109.976H848.152C848.616 109.976 848.848 110.208 848.848 110.672C848.848 111.152 848.616 111.392 848.152 111.392H847.072V113.216C847.072 113.632 846.944 113.968 846.688 114.224C846.432 114.48 846.096 114.608 845.68 114.608H841.84V116.384H846.64C847.088 116.384 847.312 116.608 847.312 117.056C847.312 117.52 847.088 117.752 846.64 117.752H841.84V119.648H847.624C848.104 119.648 848.344 119.888 848.344 120.368C848.344 120.864 848.104 121.112 847.624 121.112H841.84V122.816C841.84 123.376 841.56 123.656 841 123.656ZM841.84 113.168H843.592H844.864C845.2 113.168 845.368 113 845.368 112.664V111.392H841.84V113.168ZM841.84 109.976H845.368V108.752C845.368 108.416 845.2 108.248 844.864 108.248H843.592H841.84V109.976ZM857.104 125.792C856.528 125.792 856.24 125.496 856.24 124.904C856.24 124.328 856.528 124.04 857.104 124.04H868.24C869.36 121.176 870.368 117.624 871.264 113.384C871.392 112.776 871.784 112.536 872.44 112.664C873.112 112.792 873.368 113.184 873.208 113.84C872.184 117.792 871.144 121.192 870.088 124.04H876.544C877.12 124.04 877.408 124.328 877.408 124.904C877.408 125.496 877.12 125.792 876.544 125.792H866.824H857.104ZM863.392 122.6C863.04 122.68 862.784 122.688 862.624 122.624C862.448 122.528 862.352 122.32 862.336 122C862.096 119.472 861.496 116.768 860.536 113.888C860.312 113.312 860.504 112.952 861.112 112.808C861.608 112.696 861.944 112.864 862.12 113.312C862.616 114.608 863.048 116.064 863.416 117.68C863.752 119.136 863.984 120.48 864.112 121.712C864.16 122.192 863.92 122.488 863.392 122.6ZM857.896 111.344C857.32 111.344 857.032 111.056 857.032 110.48C857.032 109.904 857.32 109.616 857.896 109.616H865.84V105.848C865.84 105.24 866.144 104.936 866.752 104.936C867.36 104.936 867.664 105.24 867.664 105.848V109.616H875.848C876.424 109.616 876.712 109.904 876.712 110.48C876.712 111.056 876.424 111.344 875.848 111.344H866.872H857.896ZM889 125.792C888.584 125.792 888.248 125.664 887.992 125.408C887.736 125.152 887.608 124.816 887.608 124.4V120.848C887.608 120.272 887.896 119.984 888.472 119.984C889.048 119.984 889.336 120.272 889.336 120.848V123.656C889.336 123.992 889.504 124.16 889.84 124.16H894.664V119.504C894.664 118.912 894.96 118.616 895.552 118.616C896.144 118.616 896.44 118.912 896.44 119.504V124.16H901.576C901.912 124.16 902.08 123.992 902.08 123.656V120.872C902.08 120.28 902.376 119.984 902.968 119.984C903.56 119.984 903.856 120.28 903.856 120.872V124.4C903.856 124.816 903.728 125.152 903.472 125.408C903.216 125.664 902.88 125.792 902.464 125.792H895.696H889ZM886.48 119.744C885.968 119.888 885.576 119.76 885.304 119.36C884.904 118.784 885.08 118.4 885.832 118.208C887.688 117.712 889.408 117.104 890.992 116.384C890.992 116.272 890.992 116.16 890.992 116.048V112.16C890.992 111.632 891.264 111.368 891.808 111.368C892.336 111.368 892.6 111.632 892.6 112.16V115.64C895.544 114.152 897.808 112.416 899.392 110.432C899.664 110.08 900.016 110 900.448 110.192C901.024 110.464 901.128 110.84 900.76 111.32C898.952 113.448 896.6 115.28 893.704 116.816H894.136H898.672C899.008 116.816 899.256 116.768 899.416 116.672C899.592 116.576 899.728 116.392 899.824 116.12C899.872 115.688 899.976 115.336 900.136 115.064C900.344 114.728 900.6 114.616 900.904 114.728C901.288 114.872 901.44 115.352 901.36 116.168C901.216 116.984 900.96 117.536 900.592 117.824C900.24 118.112 899.656 118.256 898.84 118.256H896.44H894.04C892.84 118.256 892.04 118.112 891.64 117.824C890.104 118.496 888.384 119.136 886.48 119.744ZM905.848 116.864C905.592 117.04 905.384 117.128 905.224 117.128C905.032 117.112 904.864 116.992 904.72 116.768C904.416 116.32 903.96 115.752 903.352 115.064C902.776 114.408 902.2 113.816 901.624 113.288C901.192 112.936 901.224 112.584 901.72 112.232C902.072 112.008 902.4 112.016 902.704 112.256C904.096 113.392 905.24 114.6 906.136 115.88C906.36 116.248 906.264 116.576 905.848 116.864ZM886.816 116.6C886.48 116.84 886.136 116.84 885.784 116.6C885.208 116.2 885.224 115.784 885.832 115.352C886.664 114.632 887.32 113.688 887.8 112.52C887.992 112.008 888.344 111.848 888.856 112.04C889.336 112.2 889.488 112.528 889.312 113.024C889.04 113.712 888.72 114.336 888.352 114.896C887.92 115.568 887.408 116.136 886.816 116.6ZM896.656 111.992C896.32 112.392 895.984 112.432 895.648 112.112C895.312 111.84 894.888 111.544 894.376 111.224C893.832 110.856 893.304 110.552 892.792 110.312C892.328 110.088 892.28 109.768 892.648 109.352C892.888 109.08 893.168 109.016 893.488 109.16C894.736 109.752 895.792 110.384 896.656 111.056C896.832 111.2 896.912 111.344 896.896 111.488C896.896 111.616 896.816 111.784 896.656 111.992ZM886.504 111.632C885.928 111.632 885.64 111.352 885.64 110.792V108.368C885.64 107.952 885.768 107.616 886.024 107.36C886.28 107.104 886.616 106.976 887.032 106.976H894.64V105.824C894.64 105.232 894.944 104.936 895.552 104.936C896.144 104.936 896.44 105.232 896.44 105.824V106.976H904.24C904.656 106.976 904.992 107.104 905.248 107.36C905.504 107.616 905.632 107.952 905.632 108.368V110.744C905.632 111.336 905.336 111.632 904.744 111.632C904.152 111.632 903.856 111.336 903.856 110.744V109.088C903.856 108.752 903.688 108.584 903.352 108.584H895.6H887.848C887.512 108.584 887.344 108.752 887.344 109.088V110.792C887.344 111.352 887.064 111.632 886.504 111.632ZM932.32 126.8C931.728 126.848 931.136 126.856 930.544 126.824C929.968 126.808 929.632 126.6 929.536 126.2C929.376 125.576 929.736 125.296 930.616 125.36C930.904 125.376 931.224 125.384 931.576 125.384C931.912 125.384 932.168 125.296 932.344 125.12C932.696 124.704 932.968 122.864 933.16 119.6C933.176 119.232 933.152 118.976 933.088 118.832C933.008 118.704 932.88 118.64 932.704 118.64H924.808C924.392 118.64 924.056 118.512 923.8 118.256C923.544 118 923.416 117.664 923.416 117.248V107.336C923.416 106.92 923.544 106.584 923.8 106.328C924.056 106.072 924.392 105.944 924.808 105.944H928.912H933.64C934.152 105.944 934.408 106.2 934.408 106.712C934.408 107.24 934.152 107.504 933.64 107.504H929.896V109.688H933.136C933.616 109.688 933.856 109.928 933.856 110.408C933.856 110.888 933.616 111.128 933.136 111.128H929.896V113.36H933.136C933.616 113.36 933.856 113.6 933.856 114.08C933.856 114.56 933.616 114.8 933.136 114.8H929.896V117.08H933.472C933.936 117.08 934.272 117.256 934.48 117.608C934.72 118.024 934.808 118.728 934.744 119.72C934.632 121.816 934.496 123.344 934.336 124.304C934.176 125.232 933.968 125.848 933.712 126.152C933.376 126.552 932.912 126.768 932.32 126.8ZM922.984 125.288C922.744 125.608 922.44 125.656 922.072 125.432C921.608 125.16 921.52 124.832 921.808 124.448C922.352 123.568 922.752 122.288 923.008 120.608C923.056 120.08 923.328 119.88 923.824 120.008C924.224 120.104 924.4 120.352 924.352 120.752C924.208 121.808 924.04 122.632 923.848 123.224C923.608 124.072 923.32 124.76 922.984 125.288ZM926.464 124.856C925.968 124.92 925.72 124.728 925.72 124.28C925.72 123.992 925.704 123.536 925.672 122.912C925.672 122.88 925.672 122.856 925.672 122.84C925.624 122.328 925.56 121.76 925.48 121.136C925.416 120.752 925.576 120.528 925.96 120.464C926.36 120.384 926.6 120.544 926.68 120.944C926.904 122.192 927.024 123.296 927.04 124.256C927.04 124.576 926.848 124.776 926.464 124.856ZM929.608 123.872C929.16 124 928.896 123.864 928.816 123.464C928.752 123.096 928.656 122.704 928.528 122.288C928.416 121.824 928.28 121.368 928.12 120.92C927.992 120.552 928.128 120.312 928.528 120.2C928.848 120.104 929.08 120.208 929.224 120.512C929.544 121.296 929.824 122.2 930.064 123.224C930.128 123.528 929.976 123.744 929.608 123.872ZM916.816 123.776C916.4 123.776 916.064 123.648 915.808 123.392C915.552 123.136 915.424 122.8 915.424 122.384V117.824C915.312 118.064 915.128 118.408 914.872 118.856C914.44 119.544 914.016 119.568 913.6 118.928C913.456 118.688 913.376 118.488 913.36 118.328C913.344 118.168 913.408 117.976 913.552 117.752C914.912 115.448 915.896 112.096 916.504 107.696H914.56C914.016 107.696 913.744 107.424 913.744 106.88C913.744 106.336 914.016 106.064 914.56 106.064H918.088H921.616C922.16 106.064 922.432 106.336 922.432 106.88C922.432 107.424 922.16 107.696 921.616 107.696H918.208C917.872 109.92 917.472 111.856 917.008 113.504H920.128C920.544 113.504 920.88 113.632 921.136 113.888C921.392 114.144 921.52 114.48 921.52 114.896V122.384C921.52 122.8 921.392 123.136 921.136 123.392C920.88 123.648 920.544 123.776 920.128 123.776H916.816ZM932.368 122.456C932.016 122.616 931.776 122.536 931.648 122.216C931.6 122.12 931.528 121.976 931.432 121.784C931.32 121.576 931.232 121.416 931.168 121.304C930.912 120.856 930.712 120.52 930.568 120.296C930.344 119.976 930.424 119.744 930.808 119.6C931.08 119.472 931.296 119.528 931.456 119.768C931.968 120.488 932.376 121.176 932.68 121.832C932.808 122.088 932.704 122.296 932.368 122.456ZM917.44 122.216H918.448H919.48C919.816 122.216 919.984 122.048 919.984 121.712V115.544C919.984 115.208 919.816 115.04 919.48 115.04H916.936V121.712C916.936 122.048 917.104 122.216 917.44 122.216ZM925.552 117.08H928.312V114.8H926.68H925.048V116.576C925.048 116.912 925.216 117.08 925.552 117.08ZM925.048 113.36H926.68H928.312V111.128H925.048V113.36ZM925.048 109.688H926.68H928.312V107.504H925.552C925.216 107.504 925.048 107.672 925.048 108.008V109.688Z" fill="black"/>
<path d="M540.432 126.776C539.888 126.776 539.616 126.504 539.616 125.96V116.384C539.616 115.968 539.744 115.632 540 115.376C540.256 115.12 540.592 114.992 541.008 114.992H544.488H547.968C548.384 114.992 548.72 115.12 548.976 115.376C549.232 115.632 549.36 115.968 549.36 116.384V124.952C549.36 125.4 549.304 125.736 549.192 125.96C549.08 126.2 548.864 126.384 548.544 126.512C548.24 126.64 547.544 126.72 546.456 126.752C545.8 126.752 545.408 126.552 545.28 126.152C545.088 125.56 545.432 125.28 546.312 125.312C546.664 125.312 547.008 125.312 547.344 125.312C547.488 125.296 547.584 125.264 547.632 125.216C547.68 125.168 547.704 125.072 547.704 124.928V122.336H541.248V125.96C541.248 126.504 540.976 126.776 540.432 126.776ZM531.576 125.456C531.16 125.456 530.824 125.328 530.568 125.072C530.312 124.816 530.184 124.48 530.184 124.064V119.912C530.184 119.496 530.312 119.16 530.568 118.904C530.824 118.648 531.16 118.52 531.576 118.52H533.64H535.728C536.144 118.52 536.48 118.648 536.736 118.904C536.992 119.16 537.12 119.496 537.12 119.912V124.064C537.12 124.48 536.992 124.816 536.736 125.072C536.48 125.328 536.144 125.456 535.728 125.456H531.576ZM532.224 124.016H533.664H535.104C535.44 124.016 535.608 123.848 535.608 123.512V120.488C535.608 120.152 535.44 119.984 535.104 119.984H532.224C531.888 119.984 531.72 120.152 531.72 120.488V123.512C531.72 123.848 531.888 124.016 532.224 124.016ZM541.248 121.064H547.704V119.336H544.464H541.248V121.064ZM541.248 118.064H544.464H547.704V116.864C547.704 116.528 547.536 116.36 547.2 116.36H541.752C541.416 116.36 541.248 116.528 541.248 116.864V118.064ZM530.928 116.744C530.448 116.744 530.208 116.504 530.208 116.024C530.208 115.544 530.448 115.304 530.928 115.304H536.376C536.856 115.304 537.096 115.544 537.096 116.024C537.096 116.504 536.856 116.744 536.376 116.744H533.64H530.928ZM538.512 113.6C538.064 113.6 537.84 113.368 537.84 112.904C537.84 112.456 538.064 112.232 538.512 112.232H543.456V110.648H539.688C539.256 110.648 539.04 110.424 539.04 109.976C539.04 109.544 539.256 109.328 539.688 109.328H543.456V107.888H539.112C538.664 107.888 538.44 107.664 538.44 107.216C538.44 106.768 538.664 106.544 539.112 106.544H543.456V105.752C543.456 105.192 543.736 104.912 544.296 104.912C544.856 104.912 545.136 105.192 545.136 105.752V106.544H549.624C550.072 106.544 550.296 106.768 550.296 107.216C550.296 107.664 550.072 107.888 549.624 107.888H545.136V109.328H549.288C549.72 109.328 549.936 109.544 549.936 109.976C549.936 110.424 549.72 110.648 549.288 110.648H545.136V112.232H550.128C550.576 112.232 550.8 112.456 550.8 112.904C550.8 113.368 550.576 113.6 550.128 113.6H544.32H538.512ZM530.904 113.552C530.44 113.552 530.208 113.312 530.208 112.832C530.208 112.368 530.44 112.136 530.904 112.136H533.64H536.4C536.864 112.136 537.096 112.368 537.096 112.832C537.096 113.312 536.864 113.552 536.4 113.552H530.904ZM529.848 110.36C529.368 110.36 529.128 110.112 529.128 109.616C529.128 109.136 529.368 108.896 529.848 108.896H533.52H537.192C537.672 108.896 537.912 109.136 537.912 109.616C537.912 110.112 537.672 110.36 537.192 110.36H529.848ZM531.024 107.192C530.544 107.192 530.304 106.952 530.304 106.472C530.304 105.992 530.544 105.752 531.024 105.752H533.664H536.328C536.808 105.752 537.048 105.992 537.048 106.472C537.048 106.952 536.808 107.192 536.328 107.192H531.024ZM562.632 126.848C562.104 126.848 561.84 126.592 561.84 126.08V122.672H558.744C558.216 122.672 557.952 122.408 557.952 121.88C557.952 121.352 558.216 121.088 558.744 121.088H559.896H561.84V119.168H559.968C559.552 119.168 559.216 119.04 558.96 118.784C558.704 118.528 558.576 118.192 558.576 117.776V112.256C558.576 111.84 558.704 111.504 558.96 111.248C559.216 110.992 559.552 110.864 559.968 110.864H561.84V109.04H558.984C558.472 109.04 558.216 108.784 558.216 108.272C558.216 107.76 558.472 107.504 558.984 107.504H561.84V105.68C561.84 105.168 562.104 104.912 562.632 104.912C563.144 104.912 563.4 105.168 563.4 105.68V107.504H566.448C566.96 107.504 567.216 107.76 567.216 108.272C567.216 108.784 566.96 109.04 566.448 109.04H563.4V110.864H565.32C565.736 110.864 566.072 110.992 566.328 111.248C566.584 111.504 566.712 111.84 566.712 112.256V117.776C566.712 118.192 566.584 118.528 566.328 118.784C566.072 119.04 565.736 119.168 565.32 119.168H563.4V121.088H566.352C566.88 121.088 567.144 121.352 567.144 121.88C567.144 122.408 566.88 122.672 566.352 122.672H563.4V126.08C563.4 126.592 563.144 126.848 562.632 126.848ZM571.536 126.8C571.008 126.8 570.688 126.616 570.576 126.248C570.448 125.768 570.656 125.528 571.2 125.528H571.584C571.728 125.528 571.8 125.448 571.8 125.288V122.12H569.112V126.104C569.112 126.536 568.896 126.752 568.464 126.752C568.016 126.752 567.792 126.536 567.792 126.104V115.712C567.792 115.296 567.92 114.96 568.176 114.704C568.432 114.448 568.768 114.32 569.184 114.32H570.432H571.848C572.232 114.32 572.536 114.432 572.76 114.656C572.984 114.88 573.096 115.184 573.096 115.568V125.312C573.096 125.936 572.928 126.352 572.592 126.56C572.384 126.688 572.032 126.768 571.536 126.8ZM576.432 126.752C575.856 126.752 575.512 126.576 575.4 126.224C575.304 125.952 575.36 125.744 575.568 125.6C575.744 125.472 575.992 125.416 576.312 125.432C576.84 125.432 577.152 125.424 577.248 125.408C577.488 125.392 577.608 125.28 577.608 125.072V114.656C577.608 114.176 577.856 113.936 578.352 113.936C578.832 113.936 579.072 114.176 579.072 114.656V119.528V125.096C579.072 125.832 578.84 126.312 578.376 126.536C577.992 126.648 577.344 126.72 576.432 126.752ZM575.088 123.224C574.656 123.224 574.44 123.008 574.44 122.576V119.024V115.472C574.44 115.04 574.656 114.824 575.088 114.824C575.52 114.824 575.736 115.04 575.736 115.472V122.576C575.736 123.008 575.52 123.224 575.088 123.224ZM569.112 120.776H571.8V118.784H570.456H569.112V120.776ZM560.424 117.824H562.032V116.744V115.64H559.92V117.32C559.92 117.656 560.088 117.824 560.424 117.824ZM563.208 117.824H564.84C565.176 117.824 565.344 117.656 565.344 117.32V115.64H563.208V116.744V117.824ZM569.112 117.512H570.456H571.8V116.168C571.8 115.832 571.632 115.664 571.296 115.664H569.616C569.28 115.664 569.112 115.832 569.112 116.168V117.512ZM559.92 114.368H562.032V113.288V112.208H560.424C560.088 112.208 559.92 112.376 559.92 112.712V114.368ZM563.208 114.368H565.344V112.712C565.344 112.376 565.176 112.208 564.84 112.208H563.208V113.288V114.368ZM568.416 112.208C567.872 112.592 567.456 112.528 567.168 112.016C566.88 111.536 566.992 111.136 567.504 110.816C568.432 110.16 569.32 109.36 570.168 108.416C570.968 107.504 571.64 106.576 572.184 105.632C572.408 105.216 572.784 105.008 573.312 105.008H573.384C573.88 105.008 574.248 105.2 574.488 105.584C575.144 106.56 575.928 107.52 576.84 108.464C577.608 109.232 578.448 109.928 579.36 110.552C579.888 110.872 579.992 111.296 579.672 111.824C579.384 112.32 578.984 112.4 578.472 112.064C577.512 111.36 576.576 110.528 575.664 109.568C574.752 108.592 573.992 107.624 573.384 106.664C572.856 107.624 572.16 108.592 571.296 109.568C570.4 110.576 569.44 111.456 568.416 112.208ZM570.816 112.472C570.336 112.472 570.096 112.232 570.096 111.752C570.096 111.272 570.336 111.032 570.816 111.032H573.36H575.928C576.408 111.032 576.648 111.272 576.648 111.752C576.648 112.232 576.408 112.472 575.928 112.472H570.816ZM589.032 126.296C588.504 126.6 588.04 126.576 587.64 126.224C587 125.648 587.088 125.128 587.904 124.664C591.872 122.12 594.584 117.96 596.04 112.184C596.216 111.432 596.624 111.112 597.264 111.224H597.336C597.176 110.216 597.072 109.192 597.024 108.152H592.08C591.488 108.152 591.192 107.856 591.192 107.264C591.192 106.672 591.488 106.376 592.08 106.376H594.96H597.36C597.744 106.376 598.08 106.48 598.368 106.688C598.624 106.88 598.752 107.08 598.752 107.288C598.928 114.728 601.68 120.368 607.008 124.208C607.424 124.496 607.72 124.792 607.896 125.096C608.104 125.48 608.072 125.816 607.8 126.104C607.384 126.536 606.832 126.528 606.144 126.08C601.808 123.088 599.008 118.856 597.744 113.384C596.912 116.344 595.792 118.88 594.384 120.992C592.944 123.12 591.16 124.888 589.032 126.296ZM617.568 126.344C617.056 126.68 616.64 126.624 616.32 126.176C616.112 125.888 616.032 125.64 616.08 125.432C616.128 125.224 616.304 125.024 616.608 124.832C617.856 123.936 618.912 122.656 619.776 120.992C619.008 120.32 618.272 119.704 617.568 119.144L617.544 119.264C617.384 119.856 617.024 120.008 616.464 119.72C616.048 119.496 615.888 119.2 615.984 118.832C616.464 116.992 617.008 114.544 617.616 111.488H616.392C615.848 111.488 615.576 111.216 615.576 110.672C615.576 110.128 615.848 109.856 616.392 109.856H617.952C618.304 107.936 618.552 106.544 618.696 105.68C618.792 105.184 619.104 104.96 619.632 105.008C620.208 105.056 620.448 105.36 620.352 105.92C620.208 106.752 619.96 108.064 619.608 109.856H621.048H622.512C623.376 109.856 623.776 110.392 623.712 111.464C623.408 115.144 622.784 118.168 621.84 120.536C622.8 121.432 623.488 122.128 623.904 122.624C624.192 122.96 624.176 123.328 623.856 123.728C623.408 124.288 622.992 124.32 622.608 123.824C622.176 123.312 621.664 122.776 621.072 122.216C620.208 123.88 619.04 125.256 617.568 126.344ZM624.576 126.272C624.016 126.272 623.736 125.992 623.736 125.432C623.736 124.856 624.016 124.568 624.576 124.568H629.976V118.64H626.208C625.664 118.64 625.392 118.368 625.392 117.824C625.392 117.28 625.664 117.008 626.208 117.008H629.976V111.8H626.736C626.368 112.856 625.928 113.824 625.416 114.704C625.128 115.2 624.728 115.288 624.216 114.968C623.944 114.792 623.784 114.616 623.736 114.44C623.688 114.264 623.752 114.048 623.928 113.792C624.904 112.176 625.68 109.944 626.256 107.096C626.352 106.488 626.696 106.232 627.288 106.328C627.864 106.424 628.088 106.752 627.96 107.312C627.752 108.368 627.528 109.304 627.288 110.12H629.976V105.992C629.976 105.416 630.272 105.128 630.864 105.128C631.44 105.128 631.728 105.416 631.728 105.992V110.12H635.808C636.368 110.12 636.648 110.4 636.648 110.96C636.648 111.52 636.368 111.8 635.808 111.8H631.728V117.008H635.544C636.088 117.008 636.36 117.28 636.36 117.824C636.36 118.368 636.088 118.64 635.544 118.64H631.728V124.568H636.408C636.968 124.568 637.248 124.856 637.248 125.432C637.248 125.992 636.968 126.272 636.408 126.272H630.48H624.576ZM620.472 119.36C621.24 117.392 621.768 114.96 622.056 112.064C622.072 111.68 621.92 111.488 621.6 111.488H620.664H619.248C618.976 112.88 618.56 114.864 618 117.44C619.104 118.272 619.928 118.912 620.472 119.36ZM652.464 125.864C652.048 125.864 651.712 125.736 651.456 125.48C651.2 125.224 651.072 124.888 651.072 124.472V119.24C649.44 120.232 647.752 121.032 646.008 121.64C645.464 121.832 645.056 121.712 644.784 121.28C644.56 120.944 644.488 120.68 644.568 120.488C644.664 120.296 644.912 120.136 645.312 120.008C648.128 119.016 650.688 117.6 652.992 115.76C651.904 114.496 650.456 113.184 648.648 111.824C647.8 112.496 647.024 113.056 646.32 113.504C645.792 113.856 645.344 113.824 644.976 113.408C644.512 112.896 644.664 112.416 645.432 111.968C648.232 110.208 650.4 108.024 651.936 105.416C652.08 105.192 652.232 105.048 652.392 104.984C652.552 104.936 652.776 104.944 653.064 105.008C653.848 105.168 654.032 105.584 653.616 106.256C653.36 106.656 653.12 107.008 652.896 107.312H659.448C659.96 107.312 660.304 107.464 660.48 107.768C660.656 108.056 660.64 108.472 660.432 109.016C659.136 111.912 657.192 114.472 654.6 116.696H662.928C663.344 116.696 663.68 116.824 663.936 117.08C664.192 117.336 664.32 117.672 664.32 118.088V124.472C664.32 124.888 664.192 125.224 663.936 125.48C663.68 125.736 663.344 125.864 662.928 125.864H657.672H652.464ZM653.304 124.232H662.04C662.376 124.232 662.544 124.064 662.544 123.728V118.832C662.544 118.496 662.376 118.328 662.04 118.328H657.672H652.8V123.728C652.8 124.064 652.968 124.232 653.304 124.232ZM654.408 114.536C656.264 112.824 657.696 110.952 658.704 108.92H655.152H651.624C650.984 109.656 650.416 110.24 649.92 110.672C651.744 111.952 653.24 113.24 654.408 114.536Z" fill="black"/>
</svg>
